# This file is brought to you by Roblox Corporation
# Generated by Roblox Studio

mtllib headstand.mtl

g Meshesturretsv2cylinder0471

v 49.8427 5.17552 62.6 
v 50.0211 5.07647 62.559 
v 49.8427 5.07647 62.559 
v 50.0211 4.97742 62.6 
v 49.8427 5.07647 62.559 
v 50.0211 5.07647 62.559 
v 49.8427 4.97742 62.6 
v 49.8427 5.17552 62.6 
v 50.0211 5.17552 62.6 
v 49.8427 4.97742 63.2019 
v 49.8427 5.17552 63.2019 
v 50.0211 4.97742 63.2019 
v 50.0211 5.17552 63.2019 
v 49.8427 4.97742 63.2019 
v 50.0211 4.97742 63.2019 
v 50.0211 5.07647 63.1609 
v 49.8427 5.07647 63.1609 
v 50.0211 5.17552 63.2019 
v 49.8427 5.17552 63.2019 
v 49.8427 5.07647 63.441 
v 49.8427 5.17552 63.4 
v 50.0211 5.17552 63.4 
v 49.8427 5.21654 62.6991 
v 50.0211 5.17552 62.6 
v 49.8427 5.17552 62.6 
v 50.0211 5.07647 62.559 
v 50.0211 5.17552 62.6 
v 49.8427 5.21654 62.6991 
v 50.0211 5.21654 62.6991 
v 49.8427 5.17552 62.7981 
v 50.0211 5.17552 62.7981 
v 50.0211 5.21654 63.3009 
v 49.8427 5.21654 63.3009 
v 50.0211 5.17552 63.4 
v 49.8427 5.17552 63.4 
v 50.0211 5.07647 62.8391 
v 49.8427 5.17552 63.2019 
v 50.0211 5.17552 63.2019 
v 50.0211 5.17552 63.2019 
v 49.8427 5.17552 63.2019 
v 50.0211 5.21654 63.3009 
v 49.8427 5.21654 63.3009 
v 50.0211 4.97742 63.4 
v 49.8427 5.17552 63.4 
v 50.0211 5.17552 63.4 
v 49.8427 5.17552 62.6 
v 50.0211 5.07647 62.559 
v 50.0211 4.97742 62.6 
v 50.0211 5.21654 62.6991 
v 50.0211 5.21654 62.6991 
v 50.0211 5.07647 62.559 
v 50.0211 5.17552 62.6 
v 50.0211 4.9364 62.6991 
v 50.0211 4.97742 62.6 
v 50.0211 5.07647 62.8391 
v 50.0211 4.97742 62.7981 
v 50.0211 5.17552 62.7981 
v 50.0211 5.07647 63.1609 
v 50.0211 4.9364 63.3009 
v 50.0211 4.97742 63.2019 
v 50.0211 5.21654 63.3009 
v 50.0211 5.17552 63.2019 
v 50.0211 5.07647 63.441 
v 50.0211 4.97742 63.4 
v 50.0211 5.17552 63.4 
v 50.0211 4.97742 63.4 
v 49.8427 5.07647 63.441 
v 49.8427 4.97742 63.4 
v 50.0211 5.07647 63.441 
v 49.8427 5.17552 63.4 
v 50.0211 5.17552 63.4 
v 49.8427 5.17552 62.7981 
v 49.8427 4.97742 62.7981 
v 50.0211 5.07647 62.8391 
v 50.0211 4.97742 62.7981 
v 50.0211 5.07647 63.441 
v 49.8427 5.07647 63.441 
v 50.0211 4.97742 63.4 
v 50.0211 5.17552 62.7981 
v 49.8427 5.07647 62.8391 
v 50.0211 5.07647 62.8391 
v 49.8427 5.17552 62.7981 
v 49.8427 4.97742 62.7981 
v 50.0211 4.97742 62.7981 
v 50.0211 4.97742 63.4 
v 49.8427 4.97742 63.4 
v 49.8427 5.17552 63.4 
v 49.8427 5.17552 62.6 
v 50.0211 4.97742 62.6 
v 49.8427 4.97742 62.6 
v 50.0211 4.97742 62.6 
v 49.8427 4.9364 62.6991 
v 49.8427 4.97742 62.6 
v 50.0211 4.9364 62.6991 
v 49.8427 4.97742 62.7981 
v 50.0211 5.07647 62.8391 
v 50.0211 4.97742 62.7981 
v 49.8427 4.97742 63.2019 
v 50.0211 4.97742 63.2019 
v 50.0211 5.17552 63.2019 
v 50.0211 4.9364 62.6991 
v 49.8427 4.97742 62.7981 
v 49.8427 4.9364 62.6991 
v 50.0211 4.97742 62.7981 
v 50.0211 4.9364 63.3009 
v 49.8427 4.97742 63.2019 
v 50.0211 4.97742 63.2019 
v 50.0211 4.97742 63.4 
v 49.8427 4.9364 63.3009 
v 49.8427 4.97742 63.4 
v 50.0211 4.9364 63.3009 
v 49.8427 4.97742 63.2019 
v 50.0211 4.97742 63.4 
v 49.8427 5.07647 63.441 
v 49.8427 4.97742 63.4 
v 49.8427 5.17552 63.4 
v 49.8427 5.17552 62.6 
v 49.8427 5.07647 62.559 
v 50.0211 4.97742 62.6 
v 49.8427 4.97742 62.6 
v 49.8427 5.17552 62.7981 
v 49.8427 5.21654 62.6991 
v 49.8427 4.9364 62.6991 
v 49.8427 5.07647 62.8391 
v 49.8427 4.97742 62.7981 
v 49.8427 5.17552 62.7981 
v 49.8427 5.07647 62.559 
v 49.8427 4.97742 62.6 
v 49.8427 5.17552 62.6 
v 50.0211 5.07647 62.8391 
v 49.8427 5.21654 63.3009 
v 49.8427 4.9364 63.3009 
v 49.8427 5.07647 63.441 
v 49.8427 4.97742 63.4 
v 49.8427 5.17552 63.4 
v 49.8427 5.07647 63.1609 
v 49.8427 4.97742 63.2019 
v 49.8427 5.17552 63.2019 

vn 0 0.708661 -0.708661 
vn 0 0 -1 
vn 0 0 -1 
vn 0 -0.708661 -0.708661 
vn 0 0 -1 
vn 0 0 -1 
vn 0 -0.708661 -0.708661 
vn 0 0.708661 -0.708661 
vn 0 0.708661 -0.708661 
vn -1 0 0 
vn -1 0 0 
vn 1 0 0 
vn 1 0 0 
vn 0 -0.708661 -0.708661 
vn 0 -0.708661 -0.708661 
vn 0 0 -1 
vn 0 0 -1 
vn 0 0.708661 -0.708661 
vn 0 0.708661 -0.708661 
vn 0 0 1 
vn 0 0.708661 0.708661 
vn 0 0.708661 0.708661 
vn 0 1 0 
vn 0 0.708661 -0.708661 
vn 0 0.708661 -0.708661 
vn 0 0 -1 
vn 0 0.708661 -0.708661 
vn 0 1 0 
vn 0 1 0 
vn 0 0.708661 0.708661 
vn 0 0.708661 0.708661 
vn 0 1 0 
vn 0 1 0 
vn 0 0.708661 0.708661 
vn 0 0.708661 0.708661 
vn 1 0 0 
vn -1 0 0 
vn 1 0 0 
vn 0 0.708661 -0.708661 
vn 0 0.708661 -0.708661 
vn 0 1 0 
vn 0 1 0 
vn 0 -0.708661 0.708661 
vn 0 0.708661 0.708661 
vn 0 0.708661 0.708661 
vn 0 0.708661 -0.708661 
vn 0 0 -1 
vn 0 -0.708661 -0.708661 
vn 0 1 0 
vn 1 0 0 
vn 1 0 0 
vn 1 0 0 
vn 1 0 0 
vn 1 0 0 
vn 1 0 0 
vn 1 0 0 
vn 1 0 0 
vn 1 0 0 
vn 1 0 0 
vn 1 0 0 
vn 1 0 0 
vn 1 0 0 
vn 1 0 0 
vn 1 0 0 
vn 1 0 0 
vn 0 -0.708661 0.708661 
vn 0 0 1 
vn 0 -0.708661 0.708661 
vn 0 0 1 
vn 0 0.708661 0.708661 
vn 0 0.708661 0.708661 
vn 0 0.708661 0.708661 
vn -1 0 0 
vn 1 0 0 
vn 1 0 0 
vn 0 0 1 
vn 0 0 1 
vn 0 -0.708661 0.708661 
vn 0 0.708661 0.708661 
vn 0 0 1 
vn 0 0 1 
vn 0 0.708661 0.708661 
vn 0 -0.708661 0.708661 
vn 0 -0.708661 0.708661 
vn 0 -0.708661 0.708661 
vn 0 -0.708661 0.708661 
vn 0 0.708661 0.708661 
vn 0 0.708661 -0.708661 
vn 0 -0.708661 -0.708661 
vn 0 -0.708661 -0.708661 
vn 0 -0.708661 -0.708661 
vn 0 -1 0 
vn 0 -0.708661 -0.708661 
vn 0 -1 0 
vn -1 0 0 
vn 1 0 0 
vn 1 0 0 
vn -1 0 0 
vn 1 0 0 
vn 1 0 0 
vn 0 -1 0 
vn 0 -0.708661 0.708661 
vn 0 -1 0 
vn 0 -0.708661 0.708661 
vn 0 -1 0 
vn 0 -0.708661 -0.708661 
vn 0 -0.708661 -0.708661 
vn 0 -0.708661 0.708661 
vn 0 -1 0 
vn 0 -0.708661 0.708661 
vn 0 -1 0 
vn 0 -0.708661 -0.708661 
vn 0 -0.708661 0.708661 
vn 0 0 1 
vn 0 -0.708661 0.708661 
vn 0 0.708661 0.708661 
vn 0 0.708661 -0.708661 
vn 0 0 -1 
vn 0 -0.708661 -0.708661 
vn 0 -0.708661 -0.708661 
vn 0 0.708661 0.708661 
vn -1 0 0 
vn -1 0 0 
vn -1 0 0 
vn -1 0 0 
vn -1 0 0 
vn -1 0 0 
vn -1 0 0 
vn -1 0 0 
vn 1 0 0 
vn -1 0 0 
vn -1 0 0 
vn -1 0 0 
vn -1 0 0 
vn -1 0 0 
vn -1 0 0 
vn -1 0 0 
vn -1 0 0 

vt 0.179884 0.4544 
vt 0.157593 0.442019 
vt 0.179884 0.442019 
vt 0.157593 0.429638 
vt 0.179884 0.442019 
vt 0.157593 0.442019 
vt 0.179884 0.429638 
vt 0.179884 0.4544 
vt 0.157593 0.4544 
vt 0.179884 0.429638 
vt 0.179884 0.4544 
vt 0.157593 0.429638 
vt 0.157593 0.4544 
vt 0.179884 0.429638 
vt 0.157593 0.429638 
vt 0.157593 0.442019 
vt 0.179884 0.442019 
vt 0.157593 0.4544 
vt 0.179884 0.4544 
vt 0.223864 0.430874 
vt 0.218735 0.430874 
vt 0.218735 0.453165 
vt 0.131123 0.430874 
vt 0.118742 0.453165 
vt 0.118742 0.430874 
vt 0.113613 0.453165 
vt 0.118742 0.453165 
vt 0.131123 0.430874 
vt 0.131123 0.453165 
vt 0.143504 0.430874 
vt 0.143504 0.453165 
vt 0.206354 0.453165 
vt 0.206354 0.430874 
vt 0.218735 0.453165 
vt 0.218735 0.430874 
vt 0.148632 0.453165 
vt 0.193973 0.430874 
vt 0.193973 0.453165 
vt 0.193973 0.453165 
vt 0.193973 0.430874 
vt 0.206354 0.453165 
vt 0.206354 0.430874 
vt 0.118742 0.429638 
vt 0.118742 0.4544 
vt 0.118742 0.4544 
vt 0.218735 0.4544 
vt 0.223864 0.442019 
vt 0.218735 0.429638 
vt 0.206354 0.459529 
vt 0.206354 0.459529 
vt 0.223864 0.442019 
vt 0.218735 0.4544 
vt 0.206354 0.42451 
vt 0.218735 0.429638 
vt 0.188845 0.442019 
vt 0.193973 0.429638 
vt 0.193973 0.4544 
vt 0.148632 0.442019 
vt 0.131123 0.42451 
vt 0.143504 0.429638 
vt 0.131123 0.459529 
vt 0.143504 0.4544 
vt 0.113613 0.442019 
vt 0.118742 0.429638 
vt 0.118742 0.4544 
vt 0.179884 0.429638 
vt 0.157593 0.442019 
vt 0.157593 0.429638 
vt 0.179884 0.442019 
vt 0.157593 0.4544 
vt 0.179884 0.4544 
vt 0.157593 0.4544 
vt 0.157593 0.429638 
vt 0.179884 0.442019 
vt 0.179884 0.429638 
vt 0.179884 0.442019 
vt 0.157593 0.442019 
vt 0.179884 0.429638 
vt 0.179884 0.4544 
vt 0.157593 0.442019 
vt 0.179884 0.442019 
vt 0.157593 0.4544 
vt 0.157593 0.429638 
vt 0.179884 0.429638 
vt 0.118742 0.453165 
vt 0.118742 0.430874 
vt 0.118742 0.430874 
vt 0.218735 0.430874 
vt 0.218735 0.453165 
vt 0.218735 0.430874 
vt 0.218735 0.453165 
vt 0.206354 0.430874 
vt 0.218735 0.430874 
vt 0.206354 0.453165 
vt 0.193973 0.430874 
vt 0.188845 0.453165 
vt 0.193973 0.453165 
vt 0.143504 0.430874 
vt 0.143504 0.453165 
vt 0.143504 0.453165 
vt 0.206354 0.453165 
vt 0.193973 0.430874 
vt 0.206354 0.430874 
vt 0.193973 0.453165 
vt 0.131123 0.453165 
vt 0.143504 0.430874 
vt 0.143504 0.453165 
vt 0.118742 0.453165 
vt 0.131123 0.430874 
vt 0.118742 0.430874 
vt 0.131123 0.453165 
vt 0.143504 0.430874 
vt 0.218735 0.429638 
vt 0.223864 0.442019 
vt 0.218735 0.429638 
vt 0.218735 0.4544 
vt 0.118742 0.4544 
vt 0.113613 0.442019 
vt 0.118742 0.429638 
vt 0.118742 0.429638 
vt 0.143504 0.4544 
vt 0.131123 0.459529 
vt 0.131123 0.42451 
vt 0.148632 0.442019 
vt 0.143504 0.429638 
vt 0.143504 0.4544 
vt 0.113613 0.442019 
vt 0.118742 0.429638 
vt 0.118742 0.4544 
vt 0.148632 0.442019 
vt 0.206354 0.459529 
vt 0.206354 0.42451 
vt 0.223864 0.442019 
vt 0.218735 0.429638 
vt 0.218735 0.4544 
vt 0.188845 0.442019 
vt 0.193973 0.429638 
vt 0.193973 0.4544 

usemtl Meshesturretsv2cylinder0471Mtl

f 1/1/1 2/2/2 3/3/3 
f 4/4/4 5/5/5 6/6/6 
f 5/5/5 4/4/4 7/7/7 
f 6/6/6 8/8/8 9/9/9 
f 15/15/15 14/14/14 16/16/16 
f 16/16/16 14/14/14 17/17/17 
f 16/16/16 17/17/17 18/18/18 
f 18/18/18 17/17/17 19/19/19 
f 23/23/23 24/24/24 25/25/25 
f 27/27/27 28/28/28 29/29/29 
f 30/30/30 29/29/29 28/28/28 
f 29/29/29 30/30/30 31/31/31 
f 32/32/32 33/33/33 34/34/34 
f 34/34/34 33/33/33 35/35/35 
f 39/39/39 40/40/40 41/41/41 
f 41/41/41 40/40/40 42/42/42 
f 50/50/50 51/51/51 52/52/52 
f 50/50/50 53/53/53 51/51/51 
f 51/51/51 53/53/53 54/54/54 
f 50/50/50 55/55/55 53/53/53 
f 53/53/53 55/55/55 56/56/56 
f 55/55/55 50/50/50 57/57/57 
f 58/58/58 59/59/59 60/60/60 
f 61/61/61 59/59/59 58/58/58 
f 61/61/61 58/58/58 62/62/62 
f 61/61/61 63/63/63 59/59/59 
f 59/59/59 63/63/63 64/64/64 
f 63/63/63 61/61/61 65/65/65 
f 66/66/66 67/67/67 68/68/68 
f 69/69/69 70/70/70 67/67/67 
f 71/71/71 70/70/70 69/69/69 
f 76/76/76 77/77/77 78/78/78 
f 79/79/79 80/80/80 81/81/81 
f 80/80/80 79/79/79 82/82/82 
f 83/83/83 81/81/81 80/80/80 
f 81/81/81 83/83/83 84/84/84 
f 91/91/91 92/92/92 93/93/93 
f 92/92/92 91/91/91 94/94/94 
f 101/101/101 102/102/102 103/103/103 
f 102/102/102 101/101/101 104/104/104 
f 105/105/105 106/106/106 107/107/107 
f 109/109/109 108/108/108 110/110/110 
f 108/108/108 109/109/109 111/111/111 
f 112/112/112 111/111/111 109/109/109 
f 122/122/122 123/123/123 124/124/124 
f 124/124/124 123/123/123 125/125/125 
f 122/122/122 124/124/124 126/126/126 
f 122/122/122 127/127/127 123/123/123 
f 123/123/123 127/127/127 128/128/128 
f 127/127/127 122/122/122 129/129/129 
f 131/131/131 132/132/132 133/133/133 
f 133/133/133 132/132/132 134/134/134 
f 131/131/131 133/133/133 135/135/135 
f 131/131/131 136/136/136 132/132/132 
f 132/132/132 136/136/136 137/137/137 
f 136/136/136 131/131/131 138/138/138 

g Meshesturretsv2cylinder0461

v 52.9371 5.07647 62.4655 
v 52.9371 5.31002 62.6991 
v 52.9371 5.24162 62.5339 
v 52.9371 4.91132 62.8642 
v 52.9371 5.24162 62.8642 
v 52.9371 5.31002 63.3009 
v 52.9371 4.91132 63.4661 
v 49.5822 5.07647 62.9239 
v 49.5822 5.23546 62.8581 
v 49.5822 4.97742 62.7981 
v 49.5822 5.23546 62.5401 
v 49.5822 5.07647 62.4742 
v 49.5822 4.97742 63.4 
v 49.8105 4.91748 62.5401 
v 49.5822 4.91748 62.5401 
v 49.5822 5.07647 62.4742 
v 49.8105 5.07647 62.4742 
v 49.8105 5.23546 62.5401 
v 49.5822 5.23546 62.5401 
v 49.8105 5.23546 63.1419 
v 49.5822 5.23546 63.1419 
v 49.8105 5.07647 63.0761 
v 49.5822 5.07647 63.0761 
v 49.8105 4.91748 63.1419 
v 49.5822 4.91748 63.1419 
v 49.8427 4.97742 63.4 
v 49.5822 5.07647 63.441 
v 49.8427 5.07647 63.441 
v 49.5822 5.17552 63.4 
v 49.5822 4.97742 63.4 
v 49.8427 5.17552 63.4 
v 49.5822 5.17552 62.7981 
v 49.8427 5.17552 62.7981 
v 49.5822 5.07647 62.8391 
v 49.8427 5.07647 62.8391 
v 49.5822 4.97742 62.7981 
v 49.8427 4.97742 62.7981 
v 49.9666 5.20119 62.8238 
v 49.9666 5.07647 62.8755 
v 49.9666 5.25285 62.6991 
v 49.9666 5.20119 62.5744 
v 49.8105 5.23546 62.5401 
v 49.8105 5.07647 62.4742 
v 49.9666 5.07647 62.5227 
v 49.9666 4.95175 62.5744 
v 49.8105 4.91748 62.5401 
v 49.8105 5.07647 63.0761 
v 49.9666 5.20119 63.1762 
v 49.9666 5.07647 63.1245 
v 49.9666 4.95175 63.1762 
v 49.8105 5.23546 63.1419 
v 49.8105 4.91748 63.1419 
v 49.9666 5.25285 63.3009 
v 49.9666 5.25285 62.6991 
v 49.9666 5.20119 62.5744 
v 52.9371 5.24162 62.5339 
v 52.9371 5.07647 62.4655 
v 49.9666 5.07647 62.5227 
v 49.9666 4.95175 62.5744 
v 52.9371 4.91132 62.5339 
v 49.9666 4.95175 63.1762 
v 52.9371 4.91132 63.1358 
v 52.9371 5.07647 63.0674 
v 49.9666 5.07647 63.1245 
v 49.9666 5.20119 63.1762 
v 52.9371 5.24162 63.1358 
v 52.9371 5.24162 62.5339 
v 52.9371 4.91132 62.8642 
v 52.9371 5.24162 62.8642 
v 52.9371 5.31002 63.3009 
v 52.9371 4.91132 63.4661 
v 49.5822 5.23546 62.8581 
v 49.5822 5.23546 62.5401 
v 49.5822 5.30131 63.3009 
v 49.5822 4.97742 63.4 
v 49.5822 5.07647 62.4742 
v 49.8105 5.07647 62.4742 
v 49.8105 5.23546 62.5401 
v 49.5822 5.23546 62.5401 
v 49.8105 5.30131 62.6991 
v 49.5822 5.30131 62.6991 
v 49.8105 5.23546 62.8581 
v 49.5822 5.23546 62.8581 
v 49.8105 5.07647 62.9239 
v 49.5822 5.07647 62.9239 
v 49.5822 5.07647 63.5258 
v 49.8105 5.07647 63.5258 
v 49.8105 5.23546 63.4599 
v 49.5822 5.23546 63.4599 
v 49.8105 5.30131 63.3009 
v 49.5822 5.30131 63.3009 
v 49.8105 5.23546 63.1419 
v 49.5822 5.23546 63.1419 
v 49.8105 5.07647 63.0761 
v 49.5822 5.07647 63.0761 
v 49.8427 4.97742 63.4 
v 49.5822 5.07647 63.441 
v 49.8427 5.07647 63.441 
v 49.5822 4.97742 63.4 
v 49.5822 4.9364 63.3009 
v 49.8427 4.9364 63.3009 
v 49.5822 5.07647 63.1609 
v 49.8427 5.07647 63.1609 
v 49.5822 4.97742 63.2019 
v 49.8427 4.97742 63.2019 
v 49.8427 4.9364 63.3009 
v 49.5822 4.9364 63.3009 
v 49.8427 5.07647 62.559 
v 49.5822 5.07647 62.559 
v 49.8427 4.97742 62.6 
v 49.5822 4.97742 62.6 
v 49.5822 4.9364 62.6991 
v 49.8427 4.9364 62.6991 
v 49.5822 5.07647 62.8391 
v 49.8427 5.07647 62.8391 
v 49.5822 4.97742 62.7981 
v 49.8427 4.97742 62.7981 
v 49.8427 4.9364 62.6991 
v 49.5822 4.9364 62.6991 
v 49.9666 5.20119 62.8238 
v 49.8105 5.07647 62.9239 
v 49.9666 5.07647 62.8755 
v 49.8105 5.23546 62.8581 
v 49.8105 5.30131 62.6991 
v 49.9666 5.25285 62.6991 
v 49.9666 5.20119 62.5744 
v 49.8105 5.23546 62.5401 
v 49.8105 5.07647 62.4742 
v 49.8105 5.07647 63.0761 
v 49.9666 5.20119 63.1762 
v 49.8105 5.23546 63.1419 
v 49.8105 5.30131 63.3009 
v 49.9666 5.25285 63.3009 
v 49.9666 5.20119 63.4256 
v 49.8105 5.23546 63.4599 
v 49.8105 5.07647 63.5258 
v 49.9666 5.07647 63.4773 
v 49.9666 5.07647 62.8755 
v 49.9666 5.20119 62.8238 
v 52.9371 5.24162 62.8642 
v 52.9371 5.31002 62.6991 
v 49.9666 5.25285 62.6991 
v 49.9666 5.20119 62.5744 
v 52.9371 5.24162 62.5339 
v 49.9666 5.20119 63.1762 
v 52.9371 5.24162 63.1358 
v 52.9371 5.31002 63.3009 
v 49.9666 5.25285 63.3009 
v 49.9666 5.20119 63.4256 
v 52.9371 5.24162 63.4661 
v 52.9371 5.07647 62.4655 
v 52.9371 4.84292 62.6991 
v 52.9371 4.91132 62.5339 
v 52.9371 5.31002 62.6991 
v 52.9371 5.24162 62.5339 
v 52.9371 5.07647 62.9326 
v 52.9371 4.91132 62.8642 
v 52.9371 5.24162 62.8642 
v 52.9371 5.07647 63.5345 
v 52.9371 5.31002 63.3009 
v 52.9371 5.24162 63.4661 
v 52.9371 4.84292 63.3009 
v 52.9371 4.91132 63.4661 
v 52.9371 5.07647 63.0674 
v 52.9371 4.91132 63.1358 
v 52.9371 5.24162 63.1358 
v 52.9371 5.31002 62.6991 
v 52.9371 4.91132 62.8642 
v 52.9371 5.24162 62.8642 
v 52.9371 5.31002 63.3009 
v 52.9371 4.91132 63.4661 
v 49.5822 5.07647 62.9239 
v 49.5822 5.23546 62.8581 
v 49.5822 4.97742 62.7981 
v 49.5822 5.30131 63.3009 
v 49.5822 4.97742 63.4 
v 49.5822 4.91748 63.4599 
v 49.8105 5.23546 62.8581 
v 49.5822 5.23546 62.8581 
v 49.8105 5.07647 62.9239 
v 49.5822 5.07647 62.9239 
v 49.8105 4.91748 62.8581 
v 49.5822 4.91748 62.8581 
v 49.8105 4.91748 63.4599 
v 49.5822 4.91748 63.4599 
v 49.5822 5.07647 63.5258 
v 49.8105 5.07647 63.5258 
v 49.8105 5.23546 63.4599 
v 49.5822 5.23546 63.4599 
v 49.5822 5.17552 63.2019 
v 49.8427 5.17552 63.2019 
v 49.5822 5.07647 63.1609 
v 49.8427 5.07647 63.1609 
v 49.5822 4.97742 63.2019 
v 49.8427 4.97742 63.2019 
v 49.8427 5.07647 62.559 
v 49.5822 5.07647 62.559 
v 49.8427 4.97742 62.6 
v 49.5822 4.97742 62.6 
v 49.5822 5.17552 62.6 
v 49.8427 5.17552 62.6 
v 49.9666 5.20119 62.8238 
v 49.8105 5.07647 62.9239 
v 49.9666 5.07647 62.8755 
v 49.9666 4.95175 62.8238 
v 49.8105 5.23546 62.8581 
v 49.8105 4.91748 62.8581 
v 49.8105 5.30131 62.6991 
v 49.9666 5.25285 62.6991 
v 49.8105 5.30131 63.3009 
v 49.9666 5.25285 63.3009 
v 49.9666 5.20119 63.4256 
v 49.8105 5.23546 63.4599 
v 49.8105 5.07647 63.5258 
v 49.9666 5.07647 63.4773 
v 49.9666 4.95175 63.4256 
v 49.8105 4.91748 63.4599 
v 49.9666 4.95175 62.8238 
v 52.9371 4.91132 62.8642 
v 52.9371 5.07647 62.9326 
v 49.9666 5.07647 62.8755 
v 49.9666 5.20119 62.8238 
v 52.9371 5.24162 62.8642 
v 49.9666 5.25285 62.6991 
v 52.9371 5.24162 62.5339 
v 52.9371 5.24162 63.1358 
v 49.9666 5.25285 63.3009 
v 49.9666 5.20119 63.4256 
v 52.9371 5.24162 63.4661 
v 52.9371 5.07647 63.5345 
v 49.9666 5.07647 63.4773 
v 49.9666 4.95175 63.4256 
v 52.9371 4.91132 63.4661 
v 52.9371 5.07647 62.4655 
v 52.9371 4.91132 62.8642 
v 52.9371 4.91132 63.4661 
v 49.5822 5.07647 62.9239 
v 49.5822 5.07647 62.4742 
v 49.5822 4.97742 63.4 
v 49.5822 4.91748 63.4599 
v 49.5822 4.85163 62.6991 
v 49.8105 4.91748 62.5401 
v 49.8105 4.85163 62.6991 
v 49.5822 4.91748 62.5401 
v 49.8105 5.07647 62.4742 
v 49.8105 5.07647 62.9239 
v 49.5822 5.07647 62.9239 
v 49.8105 4.91748 62.8581 
v 49.5822 4.91748 62.8581 
v 49.8105 4.85163 62.6991 
v 49.5822 4.85163 62.6991 
v 49.8105 4.85163 63.3009 
v 49.8105 4.91748 63.4599 
v 49.5822 4.85163 63.3009 
v 49.5822 4.91748 63.4599 
v 49.8105 5.07647 63.5258 
v 49.8105 5.07647 63.0761 
v 49.5822 5.07647 63.0761 
v 49.8105 4.91748 63.1419 
v 49.5822 4.91748 63.1419 
v 49.8105 4.85163 63.3009 
v 49.5822 4.85163 63.3009 
v 49.5822 5.07647 63.441 
v 49.8427 5.07647 63.441 
v 49.5822 5.17552 63.4 
v 49.8427 5.17552 63.4 
v 49.5822 5.21654 63.3009 
v 49.8427 5.21654 63.3009 
v 49.5822 5.17552 63.2019 
v 49.8427 5.17552 63.2019 
v 49.5822 5.07647 63.1609 
v 49.8427 5.07647 63.1609 
v 49.8427 5.07647 62.559 
v 49.5822 5.07647 62.559 
v 49.5822 5.17552 62.6 
v 49.8427 5.17552 62.6 
v 49.5822 5.21654 62.6991 
v 49.8427 5.21654 62.6991 
v 49.5822 5.17552 62.7981 
v 49.8427 5.17552 62.7981 
v 49.5822 5.07647 62.8391 
v 49.8427 5.07647 62.8391 
v 49.8105 5.07647 62.9239 
v 49.9666 5.07647 62.8755 
v 49.9666 4.95175 62.8238 
v 49.8105 4.91748 62.8581 
v 49.8105 4.85163 62.6991 
v 49.9666 4.90009 62.6991 
v 49.8105 5.07647 62.4742 
v 49.9666 5.07647 62.5227 
v 49.9666 4.95175 62.5744 
v 49.8105 4.91748 62.5401 
v 49.8105 4.85163 62.6991 
v 49.9666 4.90009 62.6991 
v 49.8105 5.07647 63.0761 
v 49.9666 5.07647 63.1245 
v 49.9666 4.95175 63.1762 
v 49.8105 4.91748 63.1419 
v 49.8105 4.85163 63.3009 
v 49.9666 4.90009 63.3009 
v 49.8105 5.07647 63.5258 
v 49.9666 5.07647 63.4773 
v 49.9666 4.95175 63.4256 
v 49.8105 4.91748 63.4599 
v 49.8105 4.85163 63.3009 
v 49.9666 4.90009 63.3009 
v 52.9371 4.84292 62.6991 
v 49.9666 4.95175 62.8238 
v 49.9666 4.90009 62.6991 
v 52.9371 4.91132 62.8642 
v 49.9666 5.07647 62.8755 
v 49.9666 5.07647 62.5227 
v 49.9666 4.95175 62.5744 
v 52.9371 4.91132 62.5339 
v 52.9371 4.84292 62.6991 
v 49.9666 4.90009 62.6991 
v 52.9371 4.84292 63.3009 
v 49.9666 4.95175 63.1762 
v 52.9371 4.91132 63.1358 
v 49.9666 4.90009 63.3009 
v 49.9666 5.07647 63.1245 
v 49.9666 5.07647 63.4773 
v 49.9666 4.95175 63.4256 
v 52.9371 4.91132 63.4661 
v 52.9371 4.84292 63.3009 
v 49.9666 4.90009 63.3009 
v 52.9371 4.91132 62.8642 
v 52.9371 5.31002 63.3009 
v 52.9371 4.91132 63.4661 
v 49.5822 5.07647 62.9239 
v 49.5822 5.23546 62.8581 
v 49.5822 5.17552 62.7981 
v 49.5822 5.30131 62.6991 
v 49.5822 5.07647 62.8391 
v 49.5822 5.21654 62.6991 
v 49.5822 4.91748 62.8581 
v 49.5822 5.17552 62.6 
v 49.5822 4.97742 62.7981 
v 49.5822 4.85163 62.6991 
v 49.5822 4.9364 62.6991 
v 49.5822 5.23546 62.5401 
v 49.5822 5.07647 62.4742 
v 49.5822 5.07647 62.559 
v 49.5822 4.97742 62.6 
v 49.5822 4.91748 62.5401 
v 49.5822 4.85163 62.6991 
v 49.5822 4.9364 62.6991 
v 49.5822 5.07647 63.0761 
v 49.5822 5.17552 63.2019 
v 49.5822 5.23546 63.1419 
v 49.5822 5.30131 63.3009 
v 49.5822 5.07647 63.1609 
v 49.5822 5.21654 63.3009 
v 49.5822 4.91748 63.1419 
v 49.5822 5.17552 63.4 
v 49.5822 4.97742 63.2019 
v 49.5822 4.85163 63.3009 
v 49.5822 4.9364 63.3009 
v 49.5822 5.23546 63.4599 
v 49.5822 5.07647 63.5258 
v 49.5822 5.07647 63.441 
v 49.5822 4.97742 63.4 
v 49.5822 4.91748 63.4599 
v 49.5822 4.85163 63.3009 
v 49.5822 4.9364 63.3009 

vn 1 0 0 
vn 1 0 0 
vn 1 0 0 
vn 1 0 0 
vn 1 0 0 
vn 1 0 0 
vn 1 0 0 
vn -1 0 0 
vn -1 0 0 
vn -1 0 0 
vn -1 0 0 
vn -1 0 0 
vn -1 0 0 
vn 0 -0.708661 -0.708661 
vn 0 -0.708661 -0.708661 
vn 0 0 -1 
vn 0 0 -1 
vn 0 0.708661 -0.708661 
vn 0 0.708661 -0.708661 
vn 0 0.708661 -0.708661 
vn 0 0.708661 -0.708661 
vn 0 0 -1 
vn 0 0 -1 
vn 0 -0.708661 -0.708661 
vn 0 -0.708661 -0.708661 
vn 0 0.708661 -0.708661 
vn 0 0 -1 
vn 0 0 -1 
vn 0 -0.708661 -0.708661 
vn 0 0.708661 -0.708661 
vn 0 -0.708661 -0.708661 
vn 0 -0.708661 -0.708661 
vn 0 -0.708661 -0.708661 
vn 0 0 -1 
vn 0 0 -1 
vn 0 0.708661 -0.708661 
vn 0 0.708661 -0.708661 
vn 0.299213 0.677165 0.677165 
vn 0.299213 0 0.952756 
vn 0.299213 0.952756 0 
vn 0.299213 0.677165 -0.677165 
vn 0.299213 0.677165 -0.677165 
vn 0.299213 0 -0.952756 
vn 0.299213 0 -0.952756 
vn 0.299213 -0.677165 -0.677165 
vn 0.299213 -0.677165 -0.677165 
vn 0.299213 0 -0.952756 
vn 0.299213 0.677165 -0.677165 
vn 0.299213 0 -0.952756 
vn 0.299213 -0.677165 -0.677165 
vn 0.299213 0.677165 -0.677165 
vn 0.299213 -0.677165 -0.677165 
vn 0.299213 0.952756 0 
vn -0.015748 1 0 
vn -0.015748 0.708661 -0.708661 
vn -0.015748 0.708661 -0.708661 
vn -0.015748 0 -1 
vn -0.015748 0 -1 
vn -0.015748 -0.708661 -0.708661 
vn -0.015748 -0.708661 -0.708661 
vn -0.015748 -0.708661 -0.708661 
vn -0.015748 -0.708661 -0.708661 
vn -0.015748 0 -1 
vn -0.015748 0 -1 
vn -0.015748 0.708661 -0.708661 
vn -0.015748 0.708661 -0.708661 
vn 1 0 0 
vn 1 0 0 
vn 1 0 0 
vn 1 0 0 
vn 1 0 0 
vn -1 0 0 
vn -1 0 0 
vn -1 0 0 
vn -1 0 0 
vn 0 0 -1 
vn 0 0 -1 
vn 0 0.708661 -0.708661 
vn 0 0.708661 -0.708661 
vn 0 1 0 
vn 0 1 0 
vn 0 0.708661 0.708661 
vn 0 0.708661 0.708661 
vn 0 0 1 
vn 0 0 1 
vn 0 0 1 
vn 0 0 1 
vn 0 0.708661 0.708661 
vn 0 0.708661 0.708661 
vn 0 1 0 
vn 0 1 0 
vn 0 0.708661 -0.708661 
vn 0 0.708661 -0.708661 
vn 0 0 -1 
vn 0 0 -1 
vn 0 0.708661 -0.708661 
vn 0 0 -1 
vn 0 0 -1 
vn 0 0.708661 -0.708661 
vn 0 1 0 
vn 0 1 0 
vn 0 0 1 
vn 0 0 1 
vn 0 0.708661 0.708661 
vn 0 0.708661 0.708661 
vn 0 1 0 
vn 0 1 0 
vn 0 0 1 
vn 0 0 1 
vn 0 0.708661 0.708661 
vn 0 0.708661 0.708661 
vn 0 1 0 
vn 0 1 0 
vn 0 0 -1 
vn 0 0 -1 
vn 0 0.708661 -0.708661 
vn 0 0.708661 -0.708661 
vn 0 1 0 
vn 0 1 0 
vn 0.299213 0.677165 0.677165 
vn 0.299213 0 0.952756 
vn 0.299213 0 0.952756 
vn 0.299213 0.677165 0.677165 
vn 0.299213 0.952756 0 
vn 0.299213 0.952756 0 
vn 0.299213 0.677165 -0.677165 
vn 0.299213 0.677165 -0.677165 
vn 0.299213 0 -0.952756 
vn 0.299213 0 -0.952756 
vn 0.299213 0.677165 -0.677165 
vn 0.299213 0.677165 -0.677165 
vn 0.299213 0.952756 0 
vn 0.299213 0.952756 0 
vn 0.299213 0.677165 0.677165 
vn 0.299213 0.677165 0.677165 
vn 0.299213 0 0.952756 
vn 0.299213 0 0.952756 
vn -0.015748 0 1 
vn -0.015748 0.708661 0.708661 
vn -0.015748 0.708661 0.708661 
vn -0.015748 1 0 
vn -0.015748 1 0 
vn -0.015748 0.708661 -0.708661 
vn -0.015748 0.708661 -0.708661 
vn -0.015748 0.708661 -0.708661 
vn -0.015748 0.708661 -0.708661 
vn -0.015748 1 0 
vn -0.015748 1 0 
vn -0.015748 0.708661 0.708661 
vn -0.015748 0.708661 0.708661 
vn 1 0 0 
vn 1 0 0 
vn 1 0 0 
vn 1 0 0 
vn 1 0 0 
vn 1 0 0 
vn 1 0 0 
vn 1 0 0 
vn 1 0 0 
vn 1 0 0 
vn 1 0 0 
vn 1 0 0 
vn 1 0 0 
vn 1 0 0 
vn 1 0 0 
vn 1 0 0 
vn 1 0 0 
vn 1 0 0 
vn 1 0 0 
vn 1 0 0 
vn 1 0 0 
vn -1 0 0 
vn -1 0 0 
vn -1 0 0 
vn -1 0 0 
vn -1 0 0 
vn -1 0 0 
vn 0 0.708661 0.708661 
vn 0 0.708661 0.708661 
vn 0 0 1 
vn 0 0 1 
vn 0 -0.708661 0.708661 
vn 0 -0.708661 0.708661 
vn 0 -0.708661 0.708661 
vn 0 -0.708661 0.708661 
vn 0 0 1 
vn 0 0 1 
vn 0 0.708661 0.708661 
vn 0 0.708661 0.708661 
vn 0 -0.708661 0.708661 
vn 0 -0.708661 0.708661 
vn 0 0 1 
vn 0 0 1 
vn 0 0.708661 0.708661 
vn 0 0.708661 0.708661 
vn 0 0 1 
vn 0 0 1 
vn 0 0.708661 0.708661 
vn 0 0.708661 0.708661 
vn 0 -0.708661 0.708661 
vn 0 -0.708661 0.708661 
vn 0.299213 0.677165 0.677165 
vn 0.299213 0 0.952756 
vn 0.299213 0 0.952756 
vn 0.299213 -0.677165 0.677165 
vn 0.299213 0.677165 0.677165 
vn 0.299213 -0.677165 0.677165 
vn 0.299213 0.952756 0 
vn 0.299213 0.952756 0 
vn 0.299213 0.952756 0 
vn 0.299213 0.952756 0 
vn 0.299213 0.677165 0.677165 
vn 0.299213 0.677165 0.677165 
vn 0.299213 0 0.952756 
vn 0.299213 0 0.952756 
vn 0.299213 -0.677165 0.677165 
vn 0.299213 -0.677165 0.677165 
vn -0.015748 -0.708661 0.708661 
vn -0.015748 -0.708661 0.708661 
vn -0.015748 0 1 
vn -0.015748 0 1 
vn -0.015748 0.708661 0.708661 
vn -0.015748 0.708661 0.708661 
vn -0.015748 1 0 
vn -0.015748 0.708661 -0.708661 
vn -0.015748 0.708661 -0.708661 
vn -0.015748 1 0 
vn -0.015748 0.708661 0.708661 
vn -0.015748 0.708661 0.708661 
vn -0.015748 0 1 
vn -0.015748 0 1 
vn -0.015748 -0.708661 0.708661 
vn -0.015748 -0.708661 0.708661 
vn 1 0 0 
vn 1 0 0 
vn 1 0 0 
vn -1 0 0 
vn -1 0 0 
vn -1 0 0 
vn -1 0 0 
vn 0 -1 0 
vn 0 -0.708661 -0.708661 
vn 0 -1 0 
vn 0 -0.708661 -0.708661 
vn 0 0 -1 
vn 0 0 1 
vn 0 0 1 
vn 0 -0.708661 0.708661 
vn 0 -0.708661 0.708661 
vn 0 -1 0 
vn 0 -1 0 
vn 0 -1 0 
vn 0 -0.708661 0.708661 
vn 0 -1 0 
vn 0 -0.708661 0.708661 
vn 0 0 1 
vn 0 0 -1 
vn 0 0 -1 
vn 0 -0.708661 -0.708661 
vn 0 -0.708661 -0.708661 
vn 0 -1 0 
vn 0 -1 0 
vn 0 0 -1 
vn 0 0 -1 
vn 0 -0.708661 -0.708661 
vn 0 -0.708661 -0.708661 
vn 0 -1 0 
vn 0 -1 0 
vn 0 -0.708661 0.708661 
vn 0 -0.708661 0.708661 
vn 0 0 1 
vn 0 0 1 
vn 0 0 1 
vn 0 0 1 
vn 0 -0.708661 0.708661 
vn 0 -0.708661 0.708661 
vn 0 -1 0 
vn 0 -1 0 
vn 0 -0.708661 -0.708661 
vn 0 -0.708661 -0.708661 
vn 0 0 -1 
vn 0 0 -1 
vn 0.299213 0 0.952756 
vn 0.299213 0 0.952756 
vn 0.299213 -0.677165 0.677165 
vn 0.299213 -0.677165 0.677165 
vn 0.299213 -0.952756 0 
vn 0.299213 -0.952756 0 
vn 0.299213 0 -0.952756 
vn 0.299213 0 -0.952756 
vn 0.299213 -0.677165 -0.677165 
vn 0.299213 -0.677165 -0.677165 
vn 0.299213 -0.952756 0 
vn 0.299213 -0.952756 0 
vn 0.299213 0 -0.952756 
vn 0.299213 0 -0.952756 
vn 0.299213 -0.677165 -0.677165 
vn 0.299213 -0.677165 -0.677165 
vn 0.299213 -0.952756 0 
vn 0.299213 -0.952756 0 
vn 0.299213 0 0.952756 
vn 0.299213 0 0.952756 
vn 0.299213 -0.677165 0.677165 
vn 0.299213 -0.677165 0.677165 
vn 0.299213 -0.952756 0 
vn 0.299213 -0.952756 0 
vn -0.015748 -1 0 
vn -0.015748 -0.708661 0.708661 
vn -0.015748 -1 0 
vn -0.015748 -0.708661 0.708661 
vn -0.015748 0 1 
vn -0.015748 0 -1 
vn -0.015748 -0.708661 -0.708661 
vn -0.015748 -0.708661 -0.708661 
vn -0.015748 -1 0 
vn -0.015748 -1 0 
vn -0.015748 -1 0 
vn -0.015748 -0.708661 -0.708661 
vn -0.015748 -0.708661 -0.708661 
vn -0.015748 -1 0 
vn -0.015748 0 -1 
vn -0.015748 0 1 
vn -0.015748 -0.708661 0.708661 
vn -0.015748 -0.708661 0.708661 
vn -0.015748 -1 0 
vn -0.015748 -1 0 
vn 1 0 0 
vn 1 0 0 
vn 1 0 0 
vn -1 0 0 
vn -1 0 0 
vn -1 0 0 
vn -1 0 0 
vn -1 0 0 
vn -1 0 0 
vn -1 0 0 
vn -1 0 0 
vn -1 0 0 
vn -1 0 0 
vn -1 0 0 
vn -1 0 0 
vn -1 0 0 
vn -1 0 0 
vn -1 0 0 
vn -1 0 0 
vn -1 0 0 
vn -1 0 0 
vn -1 0 0 
vn -1 0 0 
vn -1 0 0 
vn -1 0 0 
vn -1 0 0 
vn -1 0 0 
vn -1 0 0 
vn -1 0 0 
vn -1 0 0 
vn -1 0 0 
vn -1 0 0 
vn -1 0 0 
vn -1 0 0 
vn -1 0 0 
vn -1 0 0 
vn -1 0 0 
vn -1 0 0 
vn -1 0 0 

vt 19.7903 -3 
vt 19.7903 -2.97081 
vt 19.7903 -2.97936 
vt 19.7903 -3.02064 
vt 19.7903 -2.97936 
vt 19.7903 -2.97081 
vt 19.7903 -3.02064 
vt 20.2097 -3 
vt 20.2097 -2.98013 
vt 20.2097 -3.01238 
vt 20.2097 -2.98013 
vt 20.2097 -3 
vt 20.2097 -3.01238 
vt 20.1811 -3.01987 
vt 20.2097 -3.01987 
vt 20.2097 -3 
vt 20.1811 -3 
vt 20.1811 -2.98013 
vt 20.2097 -2.98013 
vt 20.1811 -2.98013 
vt 20.2097 -2.98013 
vt 20.1811 -3 
vt 20.2097 -3 
vt 20.1811 -3.01987 
vt 20.2097 -3.01987 
vt 20.1771 -3.01238 
vt 20.2097 -3 
vt 20.1771 -3 
vt 20.2097 -2.98762 
vt 20.2097 -3.01238 
vt 20.1771 -2.98762 
vt 20.2097 -2.98762 
vt 20.1771 -2.98762 
vt 20.2097 -3 
vt 20.1771 -3 
vt 20.2097 -3.01238 
vt 20.1771 -3.01238 
vt 20.1616 -2.98441 
vt 20.1616 -3 
vt 20.1616 -2.97795 
vt 20.1616 -2.98441 
vt 20.1811 -2.98013 
vt 20.1811 -3 
vt 20.1616 -3 
vt 20.1616 -3.01559 
vt 20.1811 -3.01987 
vt 20.1811 -3 
vt 20.1616 -2.98441 
vt 20.1616 -3 
vt 20.1616 -3.01559 
vt 20.1811 -2.98013 
vt 20.1811 -3.01987 
vt 20.1616 -2.97795 
vt 20.1616 -2.97795 
vt 20.1616 -2.98441 
vt 19.7903 -2.97936 
vt 19.7903 -3 
vt 20.1616 -3 
vt 20.1616 -3.01559 
vt 19.7903 -3.02064 
vt 20.1616 -3.01559 
vt 19.7903 -3.02064 
vt 19.7903 -3 
vt 20.1616 -3 
vt 20.1616 -2.98441 
vt 19.7903 -2.97936 
vt 19.9417 -2.79032 
vt 19.983 -2.79032 
vt 19.983 -2.79032 
vt 20.0376 -2.79032 
vt 20.0583 -2.79032 
vt 19.9823 -3.20968 
vt 19.9425 -3.20968 
vt 20.0376 -3.20968 
vt 20.05 -3.20968 
vt 19.9343 -3.20968 
vt 19.9343 -3.18114 
vt 19.9425 -3.18114 
vt 19.9425 -3.20968 
vt 19.9624 -3.18114 
vt 19.9624 -3.20968 
vt 19.9823 -3.18114 
vt 19.9823 -3.20968 
vt 19.9905 -3.18114 
vt 19.9905 -3.20968 
vt 20.0657 -3.20968 
vt 20.0657 -3.18114 
vt 20.0575 -3.18114 
vt 20.0575 -3.20968 
vt 20.0376 -3.18114 
vt 20.0376 -3.20968 
vt 20.0177 -3.18114 
vt 20.0177 -3.20968 
vt 20.0095 -3.18114 
vt 20.0095 -3.20968 
vt 20.05 -3.17712 
vt 20.0551 -3.20968 
vt 20.0551 -3.17712 
vt 20.05 -3.20968 
vt 20.0376 -3.20968 
vt 20.0376 -3.17712 
vt 20.0201 -3.20968 
vt 20.0201 -3.17712 
vt 20.0252 -3.20968 
vt 20.0252 -3.17712 
vt 20.0376 -3.17712 
vt 20.0376 -3.20968 
vt 19.9449 -3.17712 
vt 19.9449 -3.20968 
vt 19.95 -3.17712 
vt 19.95 -3.20968 
vt 19.9624 -3.20968 
vt 19.9624 -3.17712 
vt 19.9799 -3.20968 
vt 19.9799 -3.17712 
vt 19.9748 -3.20968 
vt 19.9748 -3.17712 
vt 19.9624 -3.17712 
vt 19.9624 -3.20968 
vt 19.978 -3.16163 
vt 19.9905 -3.18114 
vt 19.9844 -3.16163 
vt 19.9823 -3.18114 
vt 19.9624 -3.18114 
vt 19.9624 -3.16163 
vt 19.9468 -3.16163 
vt 19.9425 -3.18114 
vt 19.9343 -3.18114 
vt 20.0095 -3.18114 
vt 20.022 -3.16163 
vt 20.0177 -3.18114 
vt 20.0376 -3.18114 
vt 20.0376 -3.16163 
vt 20.0532 -3.16163 
vt 20.0575 -3.18114 
vt 20.0657 -3.18114 
vt 20.0597 -3.16163 
vt 19.9844 -3.16163 
vt 19.978 -3.16163 
vt 19.983 -2.79032 
vt 19.9624 -2.79032 
vt 19.9624 -3.16163 
vt 19.9468 -3.16163 
vt 19.9417 -2.79032 
vt 20.022 -3.16163 
vt 20.017 -2.79032 
vt 20.0376 -2.79032 
vt 20.0376 -3.16163 
vt 20.0532 -3.16163 
vt 20.0583 -2.79032 
vt 20.0668 -3 
vt 20.0376 -3.02919 
vt 20.0583 -3.02064 
vt 20.0376 -2.97081 
vt 20.0583 -2.97936 
vt 20.0084 -3 
vt 20.017 -3.02064 
vt 20.017 -2.97936 
vt 19.9332 -3 
vt 19.9624 -2.97081 
vt 19.9417 -2.97936 
vt 19.9624 -3.02919 
vt 19.9417 -3.02064 
vt 19.9916 -3 
vt 19.983 -3.02064 
vt 19.983 -2.97936 
vt 20.2097 -2.97081 
vt 20.2097 -3.02064 
vt 20.2097 -2.97936 
vt 20.2097 -2.97081 
vt 20.2097 -3.02064 
vt 19.7903 -3 
vt 19.7903 -2.98013 
vt 19.7903 -3.01238 
vt 19.7903 -2.97189 
vt 19.7903 -3.01238 
vt 19.7903 -3.01987 
vt 19.8189 -2.98013 
vt 19.7903 -2.98013 
vt 19.8189 -3 
vt 19.7903 -3 
vt 19.8189 -3.01987 
vt 19.7903 -3.01987 
vt 19.8189 -3.01987 
vt 19.7903 -3.01987 
vt 19.7903 -3 
vt 19.8189 -3 
vt 19.8189 -2.98013 
vt 19.7903 -2.98013 
vt 19.7903 -2.98762 
vt 19.8229 -2.98762 
vt 19.7903 -3 
vt 19.8229 -3 
vt 19.7903 -3.01238 
vt 19.8229 -3.01238 
vt 19.8229 -3 
vt 19.7903 -3 
vt 19.8229 -3.01238 
vt 19.7903 -3.01238 
vt 19.7903 -2.98762 
vt 19.8229 -2.98762 
vt 19.8384 -2.98441 
vt 19.8189 -3 
vt 19.8384 -3 
vt 19.8384 -3.01559 
vt 19.8189 -2.98013 
vt 19.8189 -3.01987 
vt 19.8189 -2.97189 
vt 19.8384 -2.97795 
vt 19.8189 -2.97189 
vt 19.8384 -2.97795 
vt 19.8384 -2.98441 
vt 19.8189 -2.98013 
vt 19.8189 -3 
vt 19.8384 -3 
vt 19.8384 -3.01559 
vt 19.8189 -3.01987 
vt 19.8384 -3.01559 
vt 20.2097 -3.02064 
vt 20.2097 -3 
vt 19.8384 -3 
vt 19.8384 -2.98441 
vt 20.2097 -2.97936 
vt 19.8384 -2.97795 
vt 20.2097 -2.97936 
vt 20.2097 -2.97936 
vt 19.8384 -2.97795 
vt 19.8384 -2.98441 
vt 20.2097 -2.97936 
vt 20.2097 -3 
vt 19.8384 -3 
vt 19.8384 -3.01559 
vt 20.2097 -3.02064 
vt 20.0668 -2.79032 
vt 20.017 -2.79032 
vt 19.9417 -2.79032 
vt 20.0095 -3.20968 
vt 20.0657 -3.20968 
vt 19.95 -3.20968 
vt 19.9425 -3.20968 
vt 20.0376 -3.20968 
vt 20.0575 -3.18114 
vt 20.0376 -3.18114 
vt 20.0575 -3.20968 
vt 20.0657 -3.18114 
vt 20.0095 -3.18114 
vt 20.0095 -3.20968 
vt 20.0177 -3.18114 
vt 20.0177 -3.20968 
vt 20.0376 -3.18114 
vt 20.0376 -3.20968 
vt 19.9624 -3.18114 
vt 19.9425 -3.18114 
vt 19.9624 -3.20968 
vt 19.9425 -3.20968 
vt 19.9343 -3.18114 
vt 19.9905 -3.18114 
vt 19.9905 -3.20968 
vt 19.9823 -3.18114 
vt 19.9823 -3.20968 
vt 19.9624 -3.18114 
vt 19.9624 -3.20968 
vt 19.9449 -3.20968 
vt 19.9449 -3.17712 
vt 19.95 -3.20968 
vt 19.95 -3.17712 
vt 19.9624 -3.20968 
vt 19.9624 -3.17712 
vt 19.9748 -3.20968 
vt 19.9748 -3.17712 
vt 19.9799 -3.20968 
vt 19.9799 -3.17712 
vt 20.0551 -3.17712 
vt 20.0551 -3.20968 
vt 20.05 -3.20968 
vt 20.05 -3.17712 
vt 20.0376 -3.20968 
vt 20.0376 -3.17712 
vt 20.0252 -3.20968 
vt 20.0252 -3.17712 
vt 20.0201 -3.20968 
vt 20.0201 -3.17712 
vt 20.0095 -3.18114 
vt 20.0156 -3.16163 
vt 20.022 -3.16163 
vt 20.0177 -3.18114 
vt 20.0376 -3.18114 
vt 20.0376 -3.16163 
vt 20.0657 -3.18114 
vt 20.0597 -3.16163 
vt 20.0532 -3.16163 
vt 20.0575 -3.18114 
vt 20.0376 -3.18114 
vt 20.0376 -3.16163 
vt 19.9905 -3.18114 
vt 19.9844 -3.16163 
vt 19.978 -3.16163 
vt 19.9823 -3.18114 
vt 19.9624 -3.18114 
vt 19.9624 -3.16163 
vt 19.9343 -3.18114 
vt 19.9403 -3.16163 
vt 19.9468 -3.16163 
vt 19.9425 -3.18114 
vt 19.9624 -3.18114 
vt 19.9624 -3.16163 
vt 20.0376 -2.79032 
vt 20.022 -3.16163 
vt 20.0376 -3.16163 
vt 20.017 -2.79032 
vt 20.0156 -3.16163 
vt 20.0597 -3.16163 
vt 20.0532 -3.16163 
vt 20.0583 -2.79032 
vt 20.0376 -2.79032 
vt 20.0376 -3.16163 
vt 19.9624 -2.79032 
vt 19.978 -3.16163 
vt 19.983 -2.79032 
vt 19.9624 -3.16163 
vt 19.9844 -3.16163 
vt 19.9403 -3.16163 
vt 19.9468 -3.16163 
vt 19.9417 -2.79032 
vt 19.9624 -2.79032 
vt 19.9624 -3.16163 
vt 19.983 -3.02064 
vt 20.0376 -2.97081 
vt 20.0583 -3.02064 
vt 19.9905 -3 
vt 19.9823 -2.98013 
vt 19.9748 -2.98762 
vt 19.9624 -2.97189 
vt 19.9799 -3 
vt 19.9624 -2.98249 
vt 19.9823 -3.01987 
vt 19.95 -2.98762 
vt 19.9748 -3.01238 
vt 19.9624 -3.02811 
vt 19.9624 -3.01751 
vt 19.9425 -2.98013 
vt 19.9343 -3 
vt 19.9449 -3 
vt 19.95 -3.01238 
vt 19.9425 -3.01987 
vt 19.9624 -3.02811 
vt 19.9624 -3.01751 
vt 20.0095 -3 
vt 20.0252 -2.98762 
vt 20.0177 -2.98013 
vt 20.0376 -2.97189 
vt 20.0201 -3 
vt 20.0376 -2.98249 
vt 20.0177 -3.01987 
vt 20.05 -2.98762 
vt 20.0252 -3.01238 
vt 20.0376 -3.02811 
vt 20.0376 -3.01751 
vt 20.0575 -2.98013 
vt 20.0657 -3 
vt 20.0551 -3 
vt 20.05 -3.01238 
vt 20.0575 -3.01987 
vt 20.0376 -3.02811 
vt 20.0376 -3.01751 

usemtl Meshesturretsv2cylinder0461Mtl

f 154/154/154 152/152/152 153/153/153 
f 152/152/152 154/154/154 155/155/155 
f 154/154/154 156/156/156 155/155/155 
f 156/156/156 154/154/154 157/157/157 
f 158/158/158 160/160/160 159/159/159 
f 160/160/160 161/161/161 159/159/159 
f 160/160/160 162/162/162 161/161/161 
f 162/162/162 163/163/163 161/161/161 
f 164/164/164 165/165/165 166/166/166 
f 167/167/167 166/166/166 165/165/165 
f 165/165/165 164/164/164 168/168/168 
f 166/166/166 167/167/167 169/169/169 
f 171/171/171 172/172/172 170/170/170 
f 173/173/173 172/172/172 171/171/171 
f 173/173/173 174/174/174 172/172/172 
f 175/175/175 174/174/174 173/173/173 
f 179/179/179 181/181/181 180/180/180 
f 182/182/182 181/181/181 179/179/179 
f 183/183/183 181/181/181 182/182/182 
f 181/181/181 183/183/183 184/184/184 
f 185/185/185 186/186/186 187/187/187 
f 187/187/187 188/188/188 185/185/185 
f 186/186/186 185/185/185 189/189/189 
f 188/188/188 190/190/190 185/185/185 
f 195/195/195 193/193/193 194/194/194 
f 193/193/193 195/195/195 196/196/196 
f 195/195/195 197/197/197 196/196/196 
f 197/197/197 195/195/195 198/198/198 
f 200/200/200 199/199/199 201/201/201 
f 201/201/201 199/199/199 202/202/202 
f 203/203/203 201/201/201 202/202/202 
f 201/201/201 203/203/203 204/204/204 
f 217/217/217 218/218/218 216/216/216 
f 218/218/218 217/217/217 219/219/219 
f 218/218/218 219/219/219 220/220/220 
f 220/220/220 219/219/219 221/221/221 
f 226/226/226 228/228/228 227/227/227 
f 228/228/228 229/229/229 227/227/227 
f 228/228/228 230/230/230 229/229/229 
f 230/230/230 231/231/231 229/229/229 
f 234/234/234 238/238/238 237/237/237 
f 238/238/238 234/234/234 239/239/239 
f 242/242/242 244/244/244 243/243/243 
f 244/244/244 242/242/242 245/245/245 
f 250/250/250 248/248/248 249/249/249 
f 248/248/248 250/250/250 251/251/251 
f 256/256/256 254/254/254 255/255/255 
f 254/254/254 256/256/256 257/257/257 
f 258/258/258 262/262/262 261/261/261 
f 263/263/263 262/262/262 258/258/258 
f 264/264/264 262/262/262 263/263/263 
f 262/262/262 264/264/264 265/265/265 
f 268/268/268 269/269/269 270/270/270 
f 271/271/271 268/268/268 270/270/270 
f 270/270/270 272/272/272 271/271/271 
f 272/272/272 270/270/270 273/273/273 
f 279/279/279 277/277/277 278/278/278 
f 277/277/277 279/279/279 280/280/280 
f 279/279/279 281/281/281 280/280/280 
f 281/281/281 279/279/279 282/282/282 
f 284/284/284 283/283/283 285/285/285 
f 285/285/285 283/283/283 286/286/286 
f 287/287/287 285/285/285 286/286/286 
f 285/285/285 287/287/287 288/288/288 
f 289/289/289 290/290/290 291/291/291 
f 290/290/290 289/289/289 292/292/292 
f 292/292/292 289/289/289 293/293/293 
f 292/292/292 294/294/294 290/290/290 
f 290/290/290 294/294/294 295/295/295 
f 294/294/294 292/292/292 296/296/296 
f 297/297/297 298/298/298 299/299/299 
f 300/300/300 298/298/298 297/297/297 
f 300/300/300 297/297/297 301/301/301 
f 298/298/298 300/300/300 302/302/302 
f 302/302/302 300/300/300 303/303/303 
f 298/298/298 302/302/302 304/304/304 
f 317/317/317 318/318/318 316/316/316 
f 318/318/318 317/317/317 319/319/319 
f 318/318/318 319/319/319 320/320/320 
f 320/320/320 319/319/319 321/321/321 
f 322/322/322 324/324/324 323/323/323 
f 324/324/324 322/322/322 325/325/325 
f 325/325/325 326/326/326 324/324/324 
f 326/326/326 327/327/327 324/324/324 
f 330/330/330 329/329/329 328/328/328 
f 329/329/329 330/330/330 331/331/331 
f 332/332/332 331/331/331 330/330/330 
f 331/331/331 332/332/332 333/333/333 
f 334/334/334 335/335/335 336/336/336 
f 336/336/336 335/335/335 337/337/337 
f 334/334/334 338/338/338 335/335/335 
f 339/339/339 338/338/338 334/334/334 
f 340/340/340 341/341/341 342/342/342 
f 342/342/342 341/341/341 343/343/343 
f 341/341/341 340/340/340 344/344/344 
f 343/343/343 341/341/341 345/345/345 
f 350/350/350 351/351/351 352/352/352 
f 353/353/353 350/350/350 352/352/352 
f 352/352/352 354/354/354 353/353/353 
f 354/354/354 352/352/352 355/355/355 
f 358/358/358 356/356/356 357/357/357 
f 356/356/356 358/358/358 359/359/359 
f 358/358/358 360/360/360 359/359/359 
f 360/360/360 358/358/358 361/361/361 
f 367/367/367 366/366/366 368/368/368 
f 368/368/368 366/366/366 369/369/369 
f 370/370/370 368/368/368 369/369/369 
f 368/368/368 370/370/370 371/371/371 
f 379/379/379 380/380/380 381/381/381 
f 380/380/380 379/379/379 382/382/382 
f 386/386/386 387/387/387 388/388/388 
f 388/388/388 387/387/387 389/389/389 
f 390/390/390 391/391/391 392/392/392 
f 391/391/391 393/393/393 392/392/392 
f 397/397/397 399/399/399 398/398/398 
f 399/399/399 400/400/400 398/398/398 
f 405/405/405 404/404/404 403/403/403 
f 404/404/404 405/405/405 406/406/406 
f 407/407/407 406/406/406 405/405/405 
f 406/406/406 407/407/407 408/408/408 
f 414/414/414 415/415/415 413/413/413 
f 416/416/416 415/415/415 414/414/414 
f 416/416/416 417/417/417 415/415/415 
f 418/418/418 417/417/417 416/416/416 
f 425/425/425 423/423/423 424/424/424 
f 423/423/423 425/425/425 426/426/426 
f 429/429/429 431/431/431 430/430/430 
f 432/432/432 431/431/431 429/429/429 
f 435/435/435 437/437/437 436/436/436 
f 437/437/437 435/435/435 438/438/438 
f 441/441/441 442/442/442 443/443/443 
f 444/444/444 441/441/441 443/443/443 
f 445/445/445 446/446/446 447/447/447 
f 446/446/446 445/445/445 448/448/448 
f 453/453/453 451/451/451 452/452/452 
f 451/451/451 453/453/453 454/454/454 
f 455/455/455 456/456/456 457/457/457 
f 456/456/456 455/455/455 458/458/458 
f 462/462/462 461/461/461 463/463/463 
f 463/463/463 461/461/461 464/464/464 
f 468/468/468 469/469/469 470/470/470 
f 471/471/471 470/470/470 469/469/469 
f 468/468/468 470/470/470 472/472/472 
f 470/470/470 471/471/471 473/473/473 
f 472/472/472 474/474/474 468/468/468 
f 471/471/471 475/475/475 473/473/473 
f 474/474/474 472/472/472 476/476/476 
f 477/477/477 474/474/474 476/476/476 
f 476/476/476 478/478/478 477/477/477 
f 475/475/475 471/471/471 479/479/479 
f 480/480/480 475/475/475 479/479/479 
f 475/475/475 480/480/480 481/481/481 
f 480/480/480 482/482/482 481/481/481 
f 480/480/480 483/483/483 482/482/482 
f 484/484/484 482/482/482 483/483/483 
f 482/482/482 484/484/484 485/485/485 
f 486/486/486 487/487/487 488/488/488 
f 487/487/487 489/489/489 488/488/488 
f 487/487/487 486/486/486 490/490/490 
f 489/489/489 487/487/487 491/491/491 
f 486/486/486 492/492/492 490/490/490 
f 489/489/489 491/491/491 493/493/493 
f 492/492/492 494/494/494 490/490/490 
f 495/495/495 494/494/494 492/492/492 
f 494/494/494 495/495/495 496/496/496 
f 497/497/497 489/489/489 493/493/493 
f 493/493/493 498/498/498 497/497/497 
f 498/498/498 493/493/493 499/499/499 
f 500/500/500 498/498/498 499/499/499 
f 501/501/501 498/498/498 500/500/500 
f 500/500/500 502/502/502 501/501/501 
f 502/502/502 500/500/500 503/503/503 

g Meshesturretsv2cylinder0451

v 53.1062 5.27081 62.5047 
v 52.9248 5.27081 62.5047 
v 52.9248 5.07647 62.4242 
v 53.1062 5.07647 62.4242 
v 52.9248 4.88213 62.5047 
v 53.1062 4.88213 62.5047 
v 53.1062 4.80163 62.6991 
v 53.1062 4.88213 63.1066 
v 52.9248 4.88213 63.1066 
v 53.1062 5.07647 63.0261 
v 52.9248 5.07647 63.0261 
v 53.1062 5.27081 63.1066 
v 52.9248 5.27081 63.1066 
v 53.1062 4.88213 62.8934 
v 52.9248 4.88213 62.8934 
v 53.1062 5.27081 62.8934 
v 52.9248 5.27081 62.8934 
v 53.1062 5.35131 62.6991 
v 52.9248 5.35131 62.6991 
v 53.1062 5.27081 62.5047 
v 52.9248 5.27081 62.5047 
v 53.1062 4.88213 63.1066 
v 52.9248 4.88213 63.1066 
v 53.1062 5.27081 63.1066 
v 52.9248 5.27081 63.1066 
v 53.1062 5.35131 63.3009 
v 52.9248 5.35131 63.3009 
v 53.1062 5.27081 63.4953 
v 52.9248 5.27081 63.4953 
v 53.1062 5.07647 62.4242 
v 53.1062 4.80163 62.6991 
v 53.1062 4.88213 62.5047 
v 53.1062 5.35131 62.6991 
v 53.1062 5.27081 62.5047 
v 53.1062 5.07647 62.9739 
v 53.1062 4.88213 62.8934 
v 53.1062 5.27081 62.8934 
v 53.1062 5.07647 63.5758 
v 53.1062 5.35131 63.3009 
v 53.1062 5.27081 63.4953 
v 53.1062 4.80163 63.3009 
v 53.1062 4.88213 63.4953 
v 53.1062 5.07647 63.0261 
v 53.1062 4.88213 63.1066 
v 53.1062 5.27081 63.1066 
v 53.1062 4.88213 62.8934 
v 52.9248 4.88213 62.8934 
v 53.1062 5.07647 62.9739 
v 52.9248 5.07647 62.9739 
v 53.1062 5.27081 62.8934 
v 52.9248 5.27081 62.8934 
v 53.1062 5.27081 63.4953 
v 52.9248 5.27081 63.4953 
v 52.9248 5.07647 63.5758 
v 53.1062 5.07647 63.5758 
v 52.9248 4.88213 63.4953 
v 53.1062 4.88213 63.4953 
v 53.1062 4.88213 62.8934 
v 52.9248 4.80163 62.6991 
v 53.1062 4.80163 62.6991 
v 52.9248 4.88213 62.8934 
v 52.9248 4.88213 62.5047 
v 53.1062 4.88213 62.5047 
v 53.1062 4.80163 62.6991 
v 52.9248 4.80163 62.6991 
v 53.1062 4.88213 63.1066 
v 53.1062 4.80163 63.3009 
v 52.9248 4.80163 63.3009 
v 52.9248 4.88213 63.1066 
v 52.9248 4.88213 63.4953 
v 53.1062 4.88213 63.4953 
v 53.1062 4.80163 63.3009 
v 52.9248 4.80163 63.3009 
v 52.9248 5.35131 62.6991 
v 52.9248 4.80163 62.6991 
v 52.9248 5.07647 62.9739 
v 52.9248 4.88213 62.8934 
v 52.9248 5.27081 62.8934 
v 52.9248 5.07647 62.4242 
v 52.9248 4.88213 62.5047 
v 52.9248 5.27081 62.5047 
v 52.9248 5.35131 63.3009 
v 52.9248 4.80163 63.3009 
v 52.9248 5.07647 63.5758 
v 52.9248 4.88213 63.4953 
v 52.9248 5.27081 63.4953 
v 52.9248 5.07647 63.0261 
v 52.9248 4.88213 63.1066 
v 52.9248 5.27081 63.1066 

vn 0 0.708661 -0.708661 
vn 0 0.708661 -0.708661 
vn 0 0 -1 
vn 0 0 -1 
vn 0 -0.708661 -0.708661 
vn 0 -0.708661 -0.708661 
vn 0 -1 0 
vn 0 -0.708661 -0.708661 
vn 0 -0.708661 -0.708661 
vn 0 0 -1 
vn 0 0 -1 
vn 0 0.708661 -0.708661 
vn 0 0.708661 -0.708661 
vn 0 -0.708661 0.708661 
vn 0 -0.708661 0.708661 
vn 0 0.708661 0.708661 
vn 0 0.708661 0.708661 
vn 0 1 0 
vn 0 1 0 
vn 0 0.708661 -0.708661 
vn 0 0.708661 -0.708661 
vn 0 -0.708661 -0.708661 
vn 0 -0.708661 -0.708661 
vn 0 0.708661 -0.708661 
vn 0 0.708661 -0.708661 
vn 0 1 0 
vn 0 1 0 
vn 0 0.708661 0.708661 
vn 0 0.708661 0.708661 
vn 1 0 0 
vn 1 0 0 
vn 1 0 0 
vn 1 0 0 
vn 1 0 0 
vn 1 0 0 
vn 1 0 0 
vn 1 0 0 
vn 1 0 0 
vn 1 0 0 
vn 1 0 0 
vn 1 0 0 
vn 1 0 0 
vn 1 0 0 
vn 1 0 0 
vn 1 0 0 
vn 0 -0.708661 0.708661 
vn 0 -0.708661 0.708661 
vn 0 0 1 
vn 0 0 1 
vn 0 0.708661 0.708661 
vn 0 0.708661 0.708661 
vn 0 0.708661 0.708661 
vn 0 0.708661 0.708661 
vn 0 0 1 
vn 0 0 1 
vn 0 -0.708661 0.708661 
vn 0 -0.708661 0.708661 
vn 0 -0.708661 0.708661 
vn 0 -1 0 
vn 0 -1 0 
vn 0 -0.708661 0.708661 
vn 0 -0.708661 -0.708661 
vn 0 -0.708661 -0.708661 
vn 0 -1 0 
vn 0 -1 0 
vn 0 -0.708661 -0.708661 
vn 0 -1 0 
vn 0 -1 0 
vn 0 -0.708661 -0.708661 
vn 0 -0.708661 0.708661 
vn 0 -0.708661 0.708661 
vn 0 -1 0 
vn 0 -1 0 
vn -1 0 0 
vn -1 0 0 
vn -1 0 0 
vn -1 0 0 
vn -1 0 0 
vn -1 0 0 
vn -1 0 0 
vn -1 0 0 
vn -1 0 0 
vn -1 0 0 
vn -1 0 0 
vn -1 0 0 
vn -1 0 0 
vn -1 0 0 
vn -1 0 0 
vn -1 0 0 

vt 3.98866 -50.9757 
vt 4.01134 -50.9757 
vt 4.01134 -51 
vt 3.98866 -51 
vt 4.01134 -51.0243 
vt 3.98866 -51.0243 
vt 3.98866 -51.0344 
vt 3.98866 -51.0243 
vt 4.01134 -51.0243 
vt 3.98866 -51 
vt 4.01134 -51 
vt 3.98866 -50.9757 
vt 4.01134 -50.9757 
vt 3.98668 -50.9887 
vt 3.98668 -51.0113 
vt 3.98668 -50.9887 
vt 3.98668 -51.0113 
vt 3.96238 -50.9887 
vt 3.96238 -51.0113 
vt 3.93809 -50.9887 
vt 3.93809 -51.0113 
vt 4.01332 -50.9887 
vt 4.01332 -51.0113 
vt 4.01332 -50.9887 
vt 4.01332 -51.0113 
vt 4.03762 -50.9887 
vt 4.03762 -51.0113 
vt 4.06191 -50.9887 
vt 4.06191 -51.0113 
vt 4.07197 -51 
vt 4.03762 -51.0344 
vt 4.06191 -51.0243 
vt 4.03762 -50.9656 
vt 4.06191 -50.9757 
vt 4.00326 -51 
vt 4.01332 -51.0243 
vt 4.01332 -50.9757 
vt 3.92803 -51 
vt 3.96238 -50.9656 
vt 3.93809 -50.9757 
vt 3.96238 -51.0344 
vt 3.93809 -51.0243 
vt 3.99674 -51 
vt 3.98668 -51.0243 
vt 3.98668 -50.9757 
vt 4.01134 -51.0243 
vt 3.98866 -51.0243 
vt 4.01134 -51 
vt 3.98866 -51 
vt 4.01134 -50.9757 
vt 3.98866 -50.9757 
vt 4.01134 -50.9757 
vt 3.98866 -50.9757 
vt 3.98866 -51 
vt 4.01134 -51 
vt 3.98866 -51.0243 
vt 4.01134 -51.0243 
vt 4.01332 -50.9887 
vt 4.03762 -51.0113 
vt 4.03762 -50.9887 
vt 4.01332 -51.0113 
vt 4.06191 -51.0113 
vt 4.06191 -50.9887 
vt 4.03762 -50.9887 
vt 4.03762 -51.0113 
vt 3.98668 -50.9887 
vt 3.96238 -50.9887 
vt 3.96238 -51.0113 
vt 3.98668 -51.0113 
vt 3.93809 -51.0113 
vt 3.93809 -50.9887 
vt 3.96238 -50.9887 
vt 3.96238 -51.0113 
vt 3.96238 -50.9656 
vt 3.96238 -51.0344 
vt 3.99674 -51 
vt 3.98668 -51.0243 
vt 3.98668 -50.9757 
vt 3.92803 -51 
vt 3.93809 -51.0243 
vt 3.93809 -50.9757 
vt 4.03762 -50.9656 
vt 4.03762 -51.0344 
vt 4.07197 -51 
vt 4.06191 -51.0243 
vt 4.06191 -50.9757 
vt 4.00326 -51 
vt 4.01332 -51.0243 
vt 4.01332 -50.9757 

usemtl Meshesturretsv2cylinder0451Mtl

f 504/504/504 506/506/506 505/505/505 
f 506/506/506 504/504/504 507/507/507 
f 507/507/507 508/508/508 506/506/506 
f 508/508/508 507/507/507 509/509/509 
f 513/513/513 511/511/511 512/512/512 
f 513/513/513 512/512/512 514/514/514 
f 515/515/515 513/513/513 514/514/514 
f 515/515/515 514/514/514 516/516/516 
f 521/521/521 520/520/520 519/519/519 
f 520/520/520 521/521/521 522/522/522 
f 523/523/523 522/522/522 521/521/521 
f 522/522/522 523/523/523 524/524/524 
f 529/529/529 527/527/527 528/528/528 
f 529/529/529 528/528/528 530/530/530 
f 531/531/531 529/529/529 530/530/530 
f 531/531/531 530/530/530 532/532/532 
f 533/533/533 534/534/534 535/535/535 
f 534/534/534 533/533/533 536/536/536 
f 536/536/536 533/533/533 537/537/537 
f 538/538/538 534/534/534 536/536/536 
f 534/534/534 538/538/538 539/539/539 
f 538/538/538 536/536/536 540/540/540 
f 541/541/541 542/542/542 543/543/543 
f 544/544/544 542/542/542 541/541/541 
f 544/544/544 541/541/541 545/545/545 
f 542/542/542 544/544/544 546/546/546 
f 546/546/546 544/544/544 547/547/547 
f 542/542/542 546/546/546 548/548/548 
f 551/551/551 550/550/550 549/549/549 
f 550/550/550 551/551/551 552/552/552 
f 553/553/553 552/552/552 551/551/551 
f 552/552/552 553/553/553 554/554/554 
f 557/557/557 555/555/555 556/556/556 
f 555/555/555 557/557/557 558/558/558 
f 559/559/559 558/558/558 557/557/557 
f 558/558/558 559/559/559 560/560/560 
f 561/561/561 562/562/562 563/563/563 
f 562/562/562 561/561/561 564/564/564 
f 567/567/567 565/565/565 566/566/566 
f 565/565/565 567/567/567 568/568/568 
f 569/569/569 570/570/570 571/571/571 
f 569/569/569 571/571/571 572/572/572 
f 575/575/575 574/574/574 573/573/573 
f 575/575/575 573/573/573 576/576/576 
f 577/577/577 578/578/578 579/579/579 
f 579/579/579 578/578/578 580/580/580 
f 577/577/577 579/579/579 581/581/581 
f 577/577/577 582/582/582 578/578/578 
f 578/578/578 582/582/582 583/583/583 
f 582/582/582 577/577/577 584/584/584 
f 585/585/585 586/586/586 587/587/587 
f 587/587/587 586/586/586 588/588/588 
f 585/585/585 587/587/587 589/589/589 
f 585/585/585 590/590/590 586/586/586 
f 586/586/586 590/590/590 591/591/591 
f 590/590/590 585/585/585 592/592/592 

g Meshesturretsv2cube0101

v 53.0945 5.6388 62.5045 
v 53.0945 4.49244 63.4955 
v 53.0945 5.6388 63.4955 
v 53.0945 4.49244 62.5045 

vn -1 0 0 
vn -1 0 0 
vn -1 0 0 
vn -1 0 0 

vt 59.9381 -58.9284 
vt 60.0619 -59.0716 
vt 60.0619 -58.9284 
vt 59.9381 -59.0716 

usemtl Meshesturretsv2cylinder0461Mtl

f 593/593/593 594/594/594 595/595/595 
f 594/594/594 593/593/593 596/596/596 

g Meshesturretsv2cube0091

v 54.7743 3.9125 61.7939 
v 54.7743 4.28861 61.7939 
v 53.2257 3.9125 61.7939 
v 53.2257 4.28861 61.7939 
v 55.2061 4.28861 63.7743 
v 55.2061 4.28861 62.2257 
v 52.7939 4.28861 62.2257 
v 54.7743 4.28861 61.7939 
v 53.2257 4.28861 61.7939 
v 54.7743 4.28861 64.2061 
v 52.7939 4.28861 63.7743 
v 53.2257 4.28861 64.2061 
v 54.7743 3.9125 64.2061 
v 54.7743 4.28861 64.2061 
v 55.2061 3.9125 63.7743 
v 55.2061 4.28861 63.7743 
v 55.2061 3.9125 62.2257 
v 55.2061 4.28861 62.2257 
v 54.7743 3.9125 61.7939 
v 54.7743 4.28861 61.7939 
v 53.2257 3.9125 64.2061 
v 53.2257 4.28861 64.2061 
v 54.7743 3.9125 64.2061 
v 54.7743 4.28861 64.2061 
v 52.7939 3.9125 63.7743 
v 55.2061 3.9125 62.2257 
v 55.2061 3.9125 63.7743 
v 54.7743 3.9125 64.2061 
v 53.2257 3.9125 64.2061 
v 54.7743 3.9125 61.7939 
v 52.7939 3.9125 62.2257 
v 53.2257 3.9125 61.7939 
v 52.7939 4.28861 62.2257 
v 52.7939 3.9125 63.7743 
v 52.7939 4.28861 63.7743 
v 52.7939 3.9125 62.2257 
v 53.2257 3.9125 64.2061 
v 53.2257 4.28861 64.2061 
v 53.2257 3.9125 61.7939 
v 53.2257 4.28861 61.7939 
v 52.7939 3.9125 62.2257 
v 52.7939 4.28861 62.2257 

vn 0.385827 0 -0.92126 
vn 0.385827 0 -0.92126 
vn -0.385827 0 -0.92126 
vn -0.385827 0 -0.92126 
vn 0 1 0 
vn 0 1 0 
vn 0 1 0 
vn 0 1 0 
vn 0 1 0 
vn 0 1 0 
vn 0 1 0 
vn 0 1 0 
vn 0.385827 0 0.92126 
vn 0.385827 0 0.92126 
vn 0.92126 0 0.385827 
vn 0.92126 0 0.385827 
vn 0.92126 0 -0.385827 
vn 0.92126 0 -0.385827 
vn 0.385827 0 -0.92126 
vn 0.385827 0 -0.92126 
vn -0.385827 0 0.92126 
vn -0.385827 0 0.92126 
vn 0.385827 0 0.92126 
vn 0.385827 0 0.92126 
vn 0 -1 0 
vn 0 -1 0 
vn 0 -1 0 
vn 0 -1 0 
vn 0 -1 0 
vn 0 -1 0 
vn 0 -1 0 
vn 0 -1 0 
vn -0.92126 0 -0.385827 
vn -0.92126 0 0.385827 
vn -0.92126 0 0.385827 
vn -0.92126 0 -0.385827 
vn -0.385827 0 0.92126 
vn -0.385827 0 0.92126 
vn -0.385827 0 -0.92126 
vn -0.385827 0 -0.92126 
vn -0.92126 0 -0.385827 
vn -0.92126 0 -0.385827 

vt 5.90321 -23.0235 
vt 5.90321 -22.9765 
vt 6.09679 -23.0235 
vt 6.09679 -22.9765 
vt 6.09679 -22.8492 
vt 5.90321 -22.8492 
vt 5.90321 -23.1508 
vt 5.84923 -22.9032 
vt 5.84923 -23.0968 
vt 6.15077 -22.9032 
vt 6.09679 -23.1508 
vt 6.15077 -23.0968 
vt 5.84923 -23.0235 
vt 5.84923 -22.9765 
vt 5.90321 -23.0235 
vt 5.90321 -22.9765 
vt 6.09679 -23.0235 
vt 6.09679 -22.9765 
vt 6.15077 -23.0235 
vt 6.15077 -22.9765 
vt 5.90321 -23.0235 
vt 5.90321 -22.9765 
vt 6.09679 -23.0235 
vt 6.09679 -22.9765 
vt 5.90321 -23.1508 
vt 6.09679 -22.8492 
vt 5.90321 -22.8492 
vt 5.84923 -22.9032 
vt 5.84923 -23.0968 
vt 6.15077 -22.9032 
vt 6.09679 -23.1508 
vt 6.15077 -23.0968 
vt 5.90321 -22.9765 
vt 6.09679 -23.0235 
vt 6.09679 -22.9765 
vt 5.90321 -23.0235 
vt 6.15077 -23.0235 
vt 6.15077 -22.9765 
vt 5.84923 -23.0235 
vt 5.84923 -22.9765 
vt 5.90321 -23.0235 
vt 5.90321 -22.9765 

usemtl Meshesturretsv2cylinder0461Mtl

f 599/599/599 598/598/598 597/597/597 
f 598/598/598 599/599/599 600/600/600 
f 601/601/601 602/602/602 603/603/603 
f 603/603/603 602/602/602 604/604/604 
f 603/603/603 604/604/604 605/605/605 
f 603/603/603 606/606/606 601/601/601 
f 606/606/606 603/603/603 607/607/607 
f 606/606/606 607/607/607 608/608/608 
f 610/610/610 609/609/609 611/611/611 
f 612/612/612 610/610/610 611/611/611 
f 613/613/613 612/612/612 611/611/611 
f 612/612/612 613/613/613 614/614/614 
f 614/614/614 613/613/613 615/615/615 
f 616/616/616 614/614/614 615/615/615 
f 619/619/619 618/618/618 617/617/617 
f 618/618/618 619/619/619 620/620/620 
f 621/621/621 622/622/622 623/623/623 
f 621/621/621 623/623/623 624/624/624 
f 621/621/621 624/624/624 625/625/625 
f 622/622/622 621/621/621 626/626/626 
f 626/626/626 621/621/621 627/627/627 
f 626/626/626 627/627/627 628/628/628 
f 629/629/629 630/630/630 631/631/631 
f 630/630/630 629/629/629 632/632/632 
f 631/631/631 630/630/630 633/633/633 
f 634/634/634 631/631/631 633/633/633 
f 637/637/637 636/636/636 635/635/635 
f 636/636/636 637/637/637 638/638/638 

g Meshesturretsv2cube0081

v 52.9431 5.85058 62.3215 
v 52.9431 4.28067 62.3215 
v 53.3215 5.85058 61.9431 
v 53.3215 4.28067 61.9431 
v 54.6785 5.85058 61.9431 
v 54.6785 4.28067 61.9431 
v 55.0569 5.85058 62.3215 
v 53.0945 5.63875 63.4954 
v 52.9431 4.4925 63.5781 
v 52.9431 5.63875 63.5781 
v 53.0945 4.4925 63.4954 
v 55.0569 5.85058 63.6785 
v 55.0569 5.85058 62.3215 
v 52.9431 5.85058 62.3215 
v 54.6785 5.85058 61.9431 
v 53.3215 5.85058 61.9431 
v 54.6785 5.85058 64.0569 
v 52.9431 5.85058 63.6785 
v 53.3215 5.85058 64.0569 
v 52.9431 4.4925 62.4219 
v 52.9431 4.4925 63.5781 
v 53.0945 4.4925 63.4954 
v 53.0945 4.4925 62.5046 
v 54.6785 4.28067 61.9431 
v 55.0569 5.85058 62.3215 
v 55.0569 4.28067 62.3215 
v 55.0569 5.85058 63.6785 
v 55.0569 4.28067 63.6785 
v 54.6785 5.85058 64.0569 
v 54.6785 4.28067 64.0569 
v 55.0569 5.85058 63.6785 
v 55.0569 4.28067 63.6785 
v 54.6785 5.85058 64.0569 
v 54.6785 4.28067 64.0569 
v 53.3215 5.85058 64.0569 
v 53.3215 4.28067 64.0569 
v 52.9431 5.85058 63.6785 
v 52.9431 4.28067 63.6785 
v 53.0945 4.4925 62.5046 
v 53.0945 5.63875 62.5046 
v 52.9431 5.63875 62.4219 
v 52.9431 4.4925 62.4219 
v 52.9431 4.28067 63.6785 
v 55.0569 4.28067 62.3215 
v 55.0569 4.28067 63.6785 
v 54.6785 4.28067 64.0569 
v 53.3215 4.28067 64.0569 
v 54.6785 4.28067 61.9431 
v 52.9431 4.28067 62.3215 
v 53.3215 4.28067 61.9431 
v 52.9431 5.63875 63.5781 
v 52.9431 5.63875 62.4219 
v 53.0945 5.63875 62.5046 
v 53.0945 5.63875 63.4954 
v 52.9431 5.85058 63.6785 
v 52.9431 5.85058 62.3215 
v 52.9431 5.63875 62.4219 
v 52.9431 5.63875 63.5781 
v 52.9431 4.28067 62.3215 
v 52.9431 4.28067 63.6785 
v 52.9431 4.4925 63.5781 
v 52.9431 4.4925 62.4219 
v 52.9431 5.85058 62.3215 
v 52.9431 4.28067 62.3215 
v 52.9431 4.4925 62.4219 
v 52.9431 5.63875 62.4219 
v 52.9431 5.85058 63.6785 
v 52.9431 4.28067 63.6785 
v 52.9431 5.63875 63.5781 
v 52.9431 4.4925 63.5781 

vn -0.92126 0 -0.385827 
vn -0.92126 0 -0.385827 
vn -0.385827 0 -0.92126 
vn -0.385827 0 -0.92126 
vn 0.385827 0 -0.92126 
vn 0.385827 0 -0.92126 
vn 0.92126 0 -0.385827 
vn -0.480315 0 -0.874016 
vn -0.480315 0 -0.874016 
vn -0.480315 0 -0.874016 
vn -0.480315 0 -0.874016 
vn 0 1 0 
vn 0 1 0 
vn 0 1 0 
vn 0 1 0 
vn 0 1 0 
vn 0 1 0 
vn 0 1 0 
vn 0 1 0 
vn 0 1 0 
vn 0 1 0 
vn 0 1 0 
vn 0 1 0 
vn 0.385827 0 -0.92126 
vn 0.92126 0 -0.385827 
vn 0.92126 0 -0.385827 
vn 0.92126 0 0.385827 
vn 0.92126 0 0.385827 
vn 0.385827 0 0.92126 
vn 0.385827 0 0.92126 
vn 0.92126 0 0.385827 
vn 0.92126 0 0.385827 
vn 0.385827 0 0.92126 
vn 0.385827 0 0.92126 
vn -0.385827 0 0.92126 
vn -0.385827 0 0.92126 
vn -0.92126 0 0.385827 
vn -0.92126 0 0.385827 
vn -0.480315 0 0.874016 
vn -0.480315 0 0.874016 
vn -0.480315 0 0.874016 
vn -0.480315 0 0.874016 
vn 0 -1 0 
vn 0 -1 0 
vn 0 -1 0 
vn 0 -1 0 
vn 0 -1 0 
vn 0 -1 0 
vn 0 -1 0 
vn 0 -1 0 
vn 0 -1 0 
vn 0 -1 0 
vn 0 -1 0 
vn 0 -1 0 
vn -0.92126 0 0.385827 
vn -0.92126 0 -0.385827 
vn -1 0 0 
vn -1 0 0 
vn -0.92126 0 -0.385827 
vn -0.92126 0 0.385827 
vn -1 0 0 
vn -1 0 0 
vn -0.92126 0 -0.385827 
vn -0.92126 0 -0.385827 
vn -1 0 0 
vn -1 0 0 
vn -0.92126 0 0.385827 
vn -0.92126 0 0.385827 
vn -1 0 0 
vn -1 0 0 

vt 24.1321 -18.9019 
vt 24.1321 -19.0981 
vt 24.0848 -18.9019 
vt 24.0848 -19.0981 
vt 23.9152 -18.9019 
vt 23.9152 -19.0981 
vt 23.8679 -18.9019 
vt 24.1132 -18.9284 
vt 24.1321 -19.0716 
vt 24.1321 -18.9284 
vt 24.1132 -19.0716 
vt 24.0848 -18.8679 
vt 23.9152 -18.8679 
vt 23.9152 -19.1321 
vt 23.8679 -18.9152 
vt 23.8679 -19.0848 
vt 24.1321 -18.9152 
vt 24.0848 -19.1321 
vt 24.1321 -19.0848 
vt 23.9277 -19.1321 
vt 24.0723 -19.1321 
vt 24.0619 -19.1132 
vt 23.9381 -19.1132 
vt 24.1321 -19.0981 
vt 24.0848 -18.9019 
vt 24.0848 -19.0981 
vt 23.9152 -18.9019 
vt 23.9152 -19.0981 
vt 23.8679 -18.9019 
vt 23.8679 -19.0981 
vt 24.1321 -18.9019 
vt 24.1321 -19.0981 
vt 24.0848 -18.9019 
vt 24.0848 -19.0981 
vt 23.9152 -18.9019 
vt 23.9152 -19.0981 
vt 23.8679 -18.9019 
vt 23.8679 -19.0981 
vt 23.8868 -19.0716 
vt 23.8868 -18.9284 
vt 23.8679 -18.9284 
vt 23.8679 -19.0716 
vt 23.9152 -19.1321 
vt 24.0848 -18.8679 
vt 23.9152 -18.8679 
vt 23.8679 -18.9152 
vt 23.8679 -19.0848 
vt 24.1321 -18.9152 
vt 24.0848 -19.1321 
vt 24.1321 -19.0848 
vt 23.9277 -19.1321 
vt 24.0723 -19.1321 
vt 24.0619 -19.1132 
vt 23.9381 -19.1132 
vt 24.0848 -18.9019 
vt 23.9152 -18.9019 
vt 23.9277 -18.9284 
vt 24.0723 -18.9284 
vt 23.9152 -19.0981 
vt 24.0848 -19.0981 
vt 24.0723 -19.0716 
vt 23.9277 -19.0716 
vt 23.9152 -18.9019 
vt 23.9152 -19.0981 
vt 23.9277 -19.0716 
vt 23.9277 -18.9284 
vt 24.0848 -18.9019 
vt 24.0848 -19.0981 
vt 24.0723 -18.9284 
vt 24.0723 -19.0716 

usemtl Meshesturretsv2cube0081Mtl

f 641/641/641 640/640/640 639/639/639 
f 640/640/640 641/641/641 642/642/642 
f 643/643/643 642/642/642 641/641/641 
f 642/642/642 643/643/643 644/644/644 
f 644/644/644 643/643/643 645/645/645 
f 646/646/646 647/647/647 648/648/648 
f 647/647/647 646/646/646 649/649/649 
f 650/650/650 651/651/651 652/652/652 
f 652/652/652 651/651/651 653/653/653 
f 652/652/652 653/653/653 654/654/654 
f 652/652/652 655/655/655 650/650/650 
f 655/655/655 652/652/652 656/656/656 
f 655/655/655 656/656/656 657/657/657 
f 658/658/658 659/659/659 660/660/660 
f 658/658/658 660/660/660 661/661/661 
f 663/663/663 664/664/664 662/662/662 
f 665/665/665 664/664/664 663/663/663 
f 664/664/664 665/665/665 666/666/666 
f 667/667/667 668/668/668 666/666/666 
f 670/670/670 669/669/669 671/671/671 
f 673/673/673 672/672/672 671/671/671 
f 672/672/672 673/673/673 674/674/674 
f 674/674/674 673/673/673 675/675/675 
f 675/675/675 676/676/676 674/674/674 
f 677/677/677 678/678/678 679/679/679 
f 679/679/679 680/680/680 677/677/677 
f 681/681/681 682/682/682 683/683/683 
f 681/681/681 683/683/683 684/684/684 
f 681/681/681 684/684/684 685/685/685 
f 682/682/682 681/681/681 686/686/686 
f 686/686/686 681/681/681 687/687/687 
f 686/686/686 687/687/687 688/688/688 
f 689/689/689 690/690/690 691/691/691 
f 689/689/689 691/691/691 692/692/692 
f 693/693/693 694/694/694 695/695/695 
f 693/693/693 695/695/695 696/696/696 
f 697/697/697 698/698/698 699/699/699 
f 697/697/697 699/699/699 700/700/700 
f 701/701/701 702/702/702 703/703/703 
f 701/701/701 703/703/703 704/704/704 
f 706/706/706 705/705/705 707/707/707 
f 706/706/706 707/707/707 708/708/708 

g Meshesturretsv2cube0021

v 55.2839 1.62362 61.0001 
v 55.9999 1.62362 61.7161 
v 55.2839 1.00001 61.0001 
v 55.9999 1.00001 61.7161 
v 52.7161 1.62363 61.0001 
v 52.0001 1.00001 61.7161 
v 52.0001 1.62363 61.7161 
v 52.7161 1.00001 61.0001 
v 55.2839 1.62362 61.0001 
v 52.7161 1.00001 61.0001 
v 52.7161 1.62363 61.0001 
v 55.2839 1.00001 61.0001 
v 53.0417 1.80601 61.5074 
v 54.8516 1.98839 61.6735 
v 54.9583 1.80601 61.5074 
v 53.0417 1.80601 61.5074 
v 53.1484 1.98839 61.6735 
v 54.8516 1.98839 61.6735 
v 55.2839 1.00001 61.0001 
v 55.9999 1.00001 61.7161 
v 55.9999 1.00001 64.2839 
v 55.2839 1.00001 64.9999 
v 52.7161 1.62363 61.0001 
v 52.6735 1.98839 62.1484 
v 53.0417 1.80601 61.5074 
v 52.5074 1.80601 62.0417 
v 52.7161 1.62363 61.0001 
v 53.1484 1.98839 61.6735 
v 55.4926 1.80601 62.0417 
v 54.8516 1.98839 61.6735 
v 55.3265 1.98839 62.1484 
v 54.9583 1.80601 61.5074 
v 55.9999 1.62362 61.7161 
v 55.2839 1.62362 61.0001 
v 55.3265 1.98839 63.8516 
v 54.8516 1.98839 64.3265 
v 54.9583 1.80601 64.4927 
v 55.4926 1.80601 63.9583 
v 55.2839 1.62362 64.9999 
v 55.9999 1.62362 64.2839 
v 52.5074 1.80601 63.9583 
v 53.0417 1.80601 64.4927 
v 53.1484 1.98839 64.3265 
v 52.6735 1.98839 63.8516 
v 52.0001 1.62363 64.2839 
v 52.7161 1.62363 64.9999 
v 55.4926 1.80601 63.9583 
v 55.4926 1.80601 62.0417 
v 55.9999 1.62362 64.2839 
v 55.9999 1.62362 61.7161 
v 54.9583 1.80601 61.5074 
v 53.0417 1.80601 61.5074 
v 55.2839 1.62362 61.0001 
v 52.7161 1.62363 61.0001 
v 53.0417 1.80601 64.4927 
v 54.9583 1.80601 64.4927 
v 52.7161 1.62363 64.9999 
v 55.2839 1.62362 64.9999 
v 52.5074 1.80601 62.0417 
v 52.5074 1.80601 63.9583 
v 52.0001 1.62363 61.7161 
v 52.0001 1.62363 64.2839 
v 52.5074 1.80601 62.0417 
v 52.7161 1.62363 61.0001 
v 52.0001 1.62363 61.7161 
v 55.3265 1.98839 63.8516 
v 55.3265 1.98839 62.1484 
v 52.6735 1.98839 62.1484 
v 54.8516 1.98839 61.6735 
v 53.1484 1.98839 61.6735 
v 54.8516 1.98839 64.3265 
v 52.6735 1.98839 63.8516 
v 53.1484 1.98839 64.3265 
v 55.9999 1.00001 64.2839 
v 55.9999 1.62362 64.2839 
v 55.9999 1.00001 61.7161 
v 55.9999 1.62362 61.7161 
v 55.9999 1.00001 64.2839 
v 54.8516 1.98839 61.6735 
v 55.3265 1.98839 63.8516 
v 55.4926 1.80601 63.9583 
v 55.4926 1.80601 62.0417 
v 55.3265 1.98839 62.1484 
v 55.3265 1.98839 63.8516 
v 55.9999 1.62362 64.2839 
v 55.2839 1.62362 64.9999 
v 55.9999 1.00001 64.2839 
v 55.2839 1.00001 64.9999 
v 52.7161 1.62363 64.9999 
v 52.0001 1.62363 64.2839 
v 52.7161 1.00001 64.9999 
v 52.0001 1.00001 64.2839 
v 52.7161 1.62363 64.9999 
v 55.2839 1.00001 64.9999 
v 55.2839 1.62362 64.9999 
v 52.7161 1.00001 64.9999 
v 54.8516 1.98839 64.3265 
v 53.0417 1.80601 64.4927 
v 53.0417 1.80601 64.4927 
v 54.9583 1.80601 64.4927 
v 54.8516 1.98839 64.3265 
v 53.1484 1.98839 64.3265 
v 55.2839 1.00001 61.0001 
v 55.9999 1.00001 61.7161 
v 55.9999 1.00001 64.2839 
v 55.2839 1.00001 64.9999 
v 52.0001 1.00001 61.7161 
v 52.7161 1.00001 64.9999 
v 52.0001 1.00001 64.2839 
v 55.9999 1.00001 61.7161 
v 55.9999 1.00001 64.2839 
v 55.2839 1.00001 64.9999 
v 52.7161 1.00001 64.9999 
v 55.2839 1.00001 61.0001 
v 52.0001 1.00001 61.7161 
v 52.7161 1.00001 61.0001 
v 52.7161 1.62363 61.0001 
v 52.0001 1.00001 61.7161 
v 52.7161 1.00001 64.9999 
v 52.0001 1.62363 61.7161 
v 52.0001 1.00001 64.2839 
v 52.0001 1.62363 64.2839 
v 52.0001 1.00001 61.7161 
v 52.6735 1.98839 62.1484 
v 53.0417 1.80601 64.4927 
v 52.6735 1.98839 63.8516 
v 52.5074 1.80601 62.0417 
v 52.5074 1.80601 63.9583 
v 52.6735 1.98839 63.8516 
v 52.6735 1.98839 62.1484 

vn 0.708661 0 -0.708661 
vn 0.708661 0 -0.708661 
vn 0.708661 0 -0.708661 
vn 0.708661 0 -0.708661 
vn -0.708661 0 -0.708661 
vn -0.708661 0 -0.708661 
vn -0.708661 0 -0.708661 
vn -0.708661 0 -0.708661 
vn 0 0 -1 
vn 0 0 -1 
vn 0 0 -1 
vn 0 0 -1 
vn -0.338583 0.874016 -0.338583 
vn 0.488189 0.724409 -0.488189 
vn 0 0.866142 -0.496063 
vn 0 0.866142 -0.496063 
vn 0 0.677165 -0.740157 
vn 0 0.677165 -0.740157 
vn 0.708661 0 -0.708661 
vn 0.708661 0 -0.708661 
vn 0.708661 0 0.708661 
vn 0.708661 0 0.708661 
vn -0.708661 0 -0.708661 
vn -0.488189 0.724409 -0.488189 
vn -0.338583 0.874016 -0.338583 
vn -0.338583 0.874016 -0.338583 
vn -0.212598 0.952756 -0.212598 
vn -0.488189 0.724409 -0.488189 
vn 0.338583 0.874016 -0.338583 
vn 0.488189 0.724409 -0.488189 
vn 0.488189 0.724409 -0.488189 
vn 0.338583 0.874016 -0.338583 
vn 0.212598 0.952756 -0.212598 
vn 0.212598 0.952756 -0.212598 
vn 0.488189 0.724409 0.488189 
vn 0.488189 0.724409 0.488189 
vn 0.338583 0.874016 0.338583 
vn 0.338583 0.874016 0.338583 
vn 0.212598 0.952756 0.212598 
vn 0.212598 0.952756 0.212598 
vn -0.338583 0.874016 0.338583 
vn -0.338583 0.874016 0.338583 
vn -0.488189 0.724409 0.488189 
vn -0.488189 0.724409 0.488189 
vn -0.212598 0.952756 0.212598 
vn -0.212598 0.952756 0.212598 
vn 0.496063 0.866142 0 
vn 0.496063 0.866142 0 
vn 0.338583 0.944882 0 
vn 0.338583 0.944882 0 
vn 0 0.866142 -0.496063 
vn 0 0.866142 -0.496063 
vn 0 0.944882 -0.338583 
vn 0 0.944882 -0.338583 
vn 0 0.866142 0.496063 
vn 0 0.866142 0.496063 
vn 0 0.944882 0.338583 
vn 0 0.944882 0.338583 
vn -0.496063 0.866142 0 
vn -0.496063 0.866142 0 
vn -0.338583 0.944882 0 
vn -0.338583 0.944882 0 
vn -0.338583 0.874016 -0.338583 
vn -0.212598 0.952756 -0.212598 
vn -0.212598 0.952756 -0.212598 
vn 0 1 0 
vn 0 1 0 
vn 0 1 0 
vn 0 1 0 
vn 0 1 0 
vn 0 1 0 
vn 0 1 0 
vn 0 1 0 
vn 0.708661 0 0.708661 
vn 1 0 0 
vn 1 0 0 
vn 1 0 0 
vn 1 0 0 
vn 0.488189 0.724409 -0.488189 
vn 0.488189 0.724409 0.488189 
vn 0.496063 0.866142 0 
vn 0.496063 0.866142 0 
vn 0.740157 0.677165 0 
vn 0.740157 0.677165 0 
vn 0.708661 0 0.708661 
vn 0.708661 0 0.708661 
vn 0.708661 0 0.708661 
vn 0.708661 0 0.708661 
vn -0.708661 0 0.708661 
vn -0.708661 0 0.708661 
vn -0.708661 0 0.708661 
vn -0.708661 0 0.708661 
vn 0 0 1 
vn 0 0 1 
vn 0 0 1 
vn 0 0 1 
vn 0.488189 0.724409 0.488189 
vn -0.338583 0.874016 0.338583 
vn 0 0.866142 0.496063 
vn 0 0.866142 0.496063 
vn 0 0.677165 0.740157 
vn 0 0.677165 0.740157 
vn 0.708661 0 -0.708661 
vn 0.708661 0 -0.708661 
vn 0.708661 0 0.708661 
vn 0.708661 0 0.708661 
vn -0.708661 0 -0.708661 
vn -0.708661 0 0.708661 
vn 0 -1 0 
vn 0 -1 0 
vn 0 -1 0 
vn 0 -1 0 
vn 0 -1 0 
vn 0 -1 0 
vn 0 -1 0 
vn 0 -1 0 
vn -0.708661 0 -0.708661 
vn -0.708661 0 -0.708661 
vn -0.708661 0 0.708661 
vn -1 0 0 
vn -1 0 0 
vn -1 0 0 
vn -1 0 0 
vn -0.488189 0.724409 -0.488189 
vn -0.338583 0.874016 0.338583 
vn -0.488189 0.724409 0.488189 
vn -0.496063 0.866142 0 
vn -0.496063 0.866142 0 
vn -0.740157 0.677165 0 
vn -0.740157 0.677165 0 

vt 5.83951 -50.9838 
vt 5.75001 -50.9838 
vt 5.83951 -51.0618 
vt 5.75001 -51.0618 
vt 6.16049 -50.9838 
vt 6.24999 -51.0618 
vt 6.24999 -50.9838 
vt 6.16049 -51.0618 
vt 5.83951 -50.9838 
vt 6.16049 -51.0618 
vt 6.16049 -50.9838 
vt 5.83951 -51.0618 
vt 6.11979 -50.961 
vt 5.89355 -50.9382 
vt 5.88021 -50.961 
vt 6.11979 -50.961 
vt 6.10645 -50.9382 
vt 5.89355 -50.9382 
vt 5.75001 -50.8395 
vt 5.83951 -50.75 
vt 6.16049 -50.75 
vt 6.24999 -50.8395 
vt 5.75001 -51.1605 
vt 5.89355 -51.1658 
vt 5.81342 -51.1198 
vt 5.88021 -51.1866 
vt 5.75001 -51.1605 
vt 5.83418 -51.1065 
vt 5.88021 -50.8134 
vt 5.83418 -50.8935 
vt 5.89355 -50.8342 
vt 5.81342 -50.8802 
vt 5.83951 -50.75 
vt 5.75001 -50.8395 
vt 6.10645 -50.8342 
vt 6.16582 -50.8935 
vt 6.18658 -50.8802 
vt 6.11979 -50.8134 
vt 6.24999 -50.8395 
vt 6.16049 -50.75 
vt 6.11979 -51.1866 
vt 6.18658 -51.1198 
vt 6.16582 -51.1065 
vt 6.10645 -51.1658 
vt 6.16049 -51.25 
vt 6.24999 -51.1605 
vt 6.11979 -50.8134 
vt 5.88021 -50.8134 
vt 6.16049 -50.75 
vt 5.83951 -50.75 
vt 5.81342 -50.8802 
vt 5.81342 -51.1198 
vt 5.75001 -50.8395 
vt 5.75001 -51.1605 
vt 6.18658 -51.1198 
vt 6.18658 -50.8802 
vt 6.24999 -51.1605 
vt 6.24999 -50.8395 
vt 5.88021 -51.1866 
vt 6.11979 -51.1866 
vt 5.83951 -51.25 
vt 6.16049 -51.25 
vt 5.88021 -51.1866 
vt 5.75001 -51.1605 
vt 5.83951 -51.25 
vt 6.10645 -50.8342 
vt 5.89355 -50.8342 
vt 5.89355 -51.1658 
vt 5.83418 -50.8935 
vt 5.83418 -51.1065 
vt 6.16582 -50.8935 
vt 6.10645 -51.1658 
vt 6.16582 -51.1065 
vt 5.83951 -51.0618 
vt 5.83951 -50.9838 
vt 6.16049 -51.0618 
vt 6.16049 -50.9838 
vt 5.83951 -51.0618 
vt 6.16582 -50.9382 
vt 5.89355 -50.9382 
vt 5.88021 -50.961 
vt 6.11979 -50.961 
vt 6.10645 -50.9382 
vt 5.89355 -50.9382 
vt 6.24999 -50.9838 
vt 6.16049 -50.9838 
vt 6.24999 -51.0618 
vt 6.16049 -51.0618 
vt 5.83951 -50.9838 
vt 5.75001 -50.9838 
vt 5.83951 -51.0618 
vt 5.75001 -51.0618 
vt 5.83951 -50.9838 
vt 6.16049 -51.0618 
vt 6.16049 -50.9838 
vt 5.83951 -51.0618 
vt 6.10645 -50.9382 
vt 5.88021 -50.961 
vt 5.88021 -50.961 
vt 6.11979 -50.961 
vt 6.10645 -50.9382 
vt 5.89355 -50.9382 
vt 6.24999 -50.8395 
vt 6.16049 -50.75 
vt 5.83951 -50.75 
vt 5.75001 -50.8395 
vt 6.16049 -51.25 
vt 5.75001 -51.1605 
vt 5.83951 -51.25 
vt 6.16049 -50.75 
vt 5.83951 -50.75 
vt 5.75001 -50.8395 
vt 5.75001 -51.1605 
vt 6.24999 -50.8395 
vt 6.16049 -51.25 
vt 6.24999 -51.1605 
vt 5.75001 -50.9838 
vt 5.83951 -51.0618 
vt 6.24999 -51.0618 
vt 5.83951 -50.9838 
vt 6.16049 -51.0618 
vt 6.16049 -50.9838 
vt 5.83951 -51.0618 
vt 5.89355 -50.9382 
vt 6.18658 -50.961 
vt 6.10645 -50.9382 
vt 5.88021 -50.961 
vt 6.11979 -50.961 
vt 6.10645 -50.9382 
vt 5.89355 -50.9382 

usemtl Meshesturretsv2cube0081Mtl

f 709/709/709 710/710/710 711/711/711 
f 710/710/710 712/712/712 711/711/711 
f 713/713/713 714/714/714 715/715/715 
f 714/714/714 713/713/713 716/716/716 
f 717/717/717 718/718/718 719/719/719 
f 718/718/718 717/717/717 720/720/720 
f 723/723/723 724/724/724 725/725/725 
f 723/723/723 725/725/725 726/726/726 
f 732/732/732 733/733/733 734/734/734 
f 735/735/735 734/734/734 733/733/733 
f 733/733/733 732/732/732 736/736/736 
f 737/737/737 738/738/738 739/739/739 
f 738/738/738 737/737/737 740/740/740 
f 741/741/741 740/740/740 737/737/737 
f 740/740/740 741/741/741 742/742/742 
f 743/743/743 744/744/744 745/745/745 
f 745/745/745 746/746/746 743/743/743 
f 746/746/746 745/745/745 747/747/747 
f 747/747/747 748/748/748 746/746/746 
f 749/749/749 750/750/750 751/751/751 
f 749/749/749 751/751/751 752/752/752 
f 753/753/753 750/750/750 749/749/749 
f 753/753/753 754/754/754 750/750/750 
f 757/757/757 756/756/756 755/755/755 
f 756/756/756 757/757/757 758/758/758 
f 760/760/760 759/759/759 761/761/761 
f 761/761/761 762/762/762 760/760/760 
f 765/765/765 764/764/764 763/763/763 
f 764/764/764 765/765/765 766/766/766 
f 769/769/769 768/768/768 767/767/767 
f 769/769/769 770/770/770 768/768/768 
f 771/771/771 772/772/772 773/773/773 
f 774/774/774 775/775/775 776/776/776 
f 776/776/776 775/775/775 777/777/777 
f 776/776/776 777/777/777 778/778/778 
f 776/776/776 779/779/779 774/774/774 
f 779/779/779 776/776/776 780/780/780 
f 779/779/779 780/780/780 781/781/781 
f 783/783/783 784/784/784 785/785/785 
f 784/784/784 783/783/783 786/786/786 
f 789/789/789 790/790/790 791/791/791 
f 789/789/789 791/791/791 792/792/792 
f 793/793/793 794/794/794 795/795/795 
f 794/794/794 796/796/796 795/795/795 
f 797/797/797 798/798/798 799/799/799 
f 798/798/798 800/800/800 799/799/799 
f 801/801/801 802/802/802 803/803/803 
f 802/802/802 801/801/801 804/804/804 
f 807/807/807 808/808/808 809/809/809 
f 807/807/807 809/809/809 810/810/810 
f 817/817/817 818/818/818 819/819/819 
f 817/817/817 819/819/819 820/820/820 
f 817/817/817 820/820/820 821/821/821 
f 818/818/818 817/817/817 822/822/822 
f 822/822/822 817/817/817 823/823/823 
f 822/822/822 823/823/823 824/824/824 
f 828/828/828 829/829/829 830/830/830 
f 829/829/829 828/828/828 831/831/831 
f 835/835/835 836/836/836 837/837/837 
f 835/835/835 837/837/837 838/838/838 

g Meshesturretsv2cylinder0401

v 53.3616 2.7024 62.3616 
v 53.1488 2.00023 62.1488 
v 54 2.00023 61.7963 
v 54 2.7024 62.0972 
v 54.6384 2.7024 62.3616 
v 54.8512 2.00023 62.1488 
v 53.3616 2.7024 62.3616 
v 54.6384 2.7024 63.6384 
v 54.6384 2.7024 62.3616 
v 54.9028 2.7024 63 
v 54 2.7024 62.0972 
v 53.3616 2.7024 63.6384 
v 54 2.7024 63.9028 
v 53.0972 2.7024 63 
v 54.6384 2.7024 63.6384 
v 55.2037 2.00023 63 
v 54.9028 2.7024 63 
v 54.8512 2.00023 63.8512 
v 54.6384 2.7024 62.3616 
v 54.8512 2.00023 62.1488 
v 55.2037 2.00023 63 
v 54.9028 2.7024 63 
v 54.6384 2.7024 63.6384 
v 54.8512 2.00023 63.8512 
v 54 2.00023 64.2037 
v 54 2.7024 63.9028 
v 53.3616 2.7024 63.6384 
v 53.1488 2.00023 63.8512 
v 53.1488 2.00023 63.8512 
v 54.8512 2.00023 63.8512 
v 54 2.00023 64.2037 
v 53.1488 2.00023 62.1488 
v 52.7963 2.00023 63 
v 54.8512 2.00023 62.1488 
v 55.2037 2.00023 63 
v 54 2.00023 61.7963 
v 53.3616 2.7024 63.6384 
v 53.1488 2.00023 63.8512 
v 52.7963 2.00023 63 
v 53.0972 2.7024 63 
v 53.3616 2.7024 62.3616 
v 53.1488 2.00023 62.1488 

vn -0.645669 0.393701 -0.653543 
vn -0.645669 0.393701 -0.653543 
vn 0 0.393701 -0.92126 
vn 0 0.393701 -0.92126 
vn 0.653543 0.393701 -0.653543 
vn 0.653543 0.393701 -0.653543 
vn 0 1 0 
vn 0 1 0 
vn 0 1 0 
vn 0 1 0 
vn 0 1 0 
vn 0 1 0 
vn 0 1 0 
vn 0 1 0 
vn 0.653543 0.393701 0.645669 
vn 0.92126 0.393701 0 
vn 0.92126 0.393701 0 
vn 0.653543 0.393701 0.645669 
vn 0.653543 0.393701 -0.653543 
vn 0.653543 0.393701 -0.653543 
vn 0.92126 0.393701 0 
vn 0.92126 0.393701 0 
vn 0.653543 0.393701 0.645669 
vn 0.653543 0.393701 0.645669 
vn 0 0.393701 0.92126 
vn 0 0.393701 0.92126 
vn -0.653543 0.393701 0.653543 
vn -0.653543 0.393701 0.653543 
vn 0 -1 0 
vn 0 -1 0 
vn 0 -1 0 
vn 0 -1 0 
vn 0 -1 0 
vn 0 -1 0 
vn 0 -1 0 
vn 0 -1 0 
vn -0.653543 0.393701 0.653543 
vn -0.653543 0.393701 0.653543 
vn -0.92126 0.393701 0 
vn -0.92126 0.393701 0 
vn -0.645669 0.393701 -0.653543 
vn -0.645669 0.393701 -0.653543 

vt 24.0798 -30.9561 
vt 24.1064 -31.0439 
vt 24 -31.0439 
vt 24 -30.9561 
vt 23.9202 -30.9561 
vt 23.8936 -31.0439 
vt 23.9202 -31.0798 
vt 24.0798 -30.9202 
vt 23.9202 -30.9202 
vt 24 -30.8872 
vt 23.8872 -31 
vt 24.0798 -31.0798 
vt 24.1128 -31 
vt 24 -31.1128 
vt 23.9202 -30.9561 
vt 24 -31.0439 
vt 24 -30.9561 
vt 23.8936 -31.0439 
vt 24.0798 -30.9561 
vt 24.1064 -31.0439 
vt 24 -31.0439 
vt 24 -30.9561 
vt 24.0798 -30.9561 
vt 24.1064 -31.0439 
vt 24 -31.0439 
vt 24 -30.9561 
vt 23.9202 -30.9561 
vt 23.8936 -31.0439 
vt 23.8936 -31.1064 
vt 23.8936 -30.8936 
vt 23.8495 -31 
vt 24.1064 -31.1064 
vt 24 -31.1505 
vt 24.1064 -30.8936 
vt 24 -30.8495 
vt 24.1505 -31 
vt 24.0798 -30.9561 
vt 24.1064 -31.0439 
vt 24 -31.0439 
vt 24 -30.9561 
vt 23.9202 -30.9561 
vt 23.8936 -31.0439 

usemtl Meshesturretsv2cylinder0451Mtl

f 839/839/839 841/841/841 840/840/840 
f 841/841/841 839/839/839 842/842/842 
f 843/843/843 841/841/841 842/842/842 
f 841/841/841 843/843/843 844/844/844 
f 845/845/845 846/846/846 847/847/847 
f 847/847/847 846/846/846 848/848/848 
f 845/845/845 847/847/847 849/849/849 
f 845/845/845 850/850/850 846/846/846 
f 846/846/846 850/850/850 851/851/851 
f 850/850/850 845/845/845 852/852/852 
f 853/853/853 854/854/854 855/855/855 
f 854/854/854 853/853/853 856/856/856 
f 857/857/857 859/859/859 858/858/858 
f 859/859/859 857/857/857 860/860/860 
f 861/861/861 863/863/863 862/862/862 
f 863/863/863 861/861/861 864/864/864 
f 865/865/865 863/863/863 864/864/864 
f 863/863/863 865/865/865 866/866/866 
f 867/867/867 868/868/868 869/869/869 
f 868/868/868 867/867/867 870/870/870 
f 870/870/870 867/867/867 871/871/871 
f 872/872/872 868/868/868 870/870/870 
f 868/868/868 872/872/872 873/873/873 
f 872/872/872 870/870/870 874/874/874 
f 875/875/875 877/877/877 876/876/876 
f 877/877/877 875/875/875 878/878/878 
f 879/879/879 877/877/877 878/878/878 
f 877/877/877 879/879/879 880/880/880 

g Meshesturretsv2cylinder0431

v 53.695 4.15058 62.695 
v 53.695 2.68981 62.695 
v 54 4.15058 62.5687 
v 54 2.68981 62.5687 
v 54.305 4.15058 62.695 
v 54.305 2.68981 62.695 
v 54 4.15058 62.5687 
v 54.4313 4.15058 63 
v 54.305 4.15058 62.695 
v 53.5687 4.15058 63 
v 53.695 4.15058 62.695 
v 54.305 4.15058 63.305 
v 53.695 4.15058 63.305 
v 54 4.15058 63.4313 
v 54.305 4.15058 63.305 
v 54.4313 2.68981 63 
v 54.4313 4.15058 63 
v 54.305 2.68981 63.305 
v 54.305 4.15058 62.695 
v 54.305 2.68981 62.695 
v 54.4313 4.15058 63 
v 54.4313 2.68981 63 
v 54.305 4.15058 63.305 
v 54.305 2.68981 63.305 
v 54 4.15058 63.4313 
v 54 2.68981 63.4313 
v 53.695 4.15058 63.305 
v 53.695 2.68981 63.305 
v 53.695 2.68981 63.305 
v 54.305 2.68981 63.305 
v 54 2.68981 63.4313 
v 54.4313 2.68981 63 
v 53.5687 2.68981 63 
v 54 2.68981 62.5687 
v 54.305 2.68981 62.695 
v 53.695 2.68981 62.695 
v 53.695 4.15058 63.305 
v 53.695 2.68981 63.305 
v 53.5687 4.15058 63 
v 53.5687 2.68981 63 
v 53.695 4.15058 62.695 
v 53.695 2.68981 62.695 

vn -0.708661 0 -0.708661 
vn -0.708661 0 -0.708661 
vn 0 0 -1 
vn 0 0 -1 
vn 0.708661 0 -0.708661 
vn 0.708661 0 -0.708661 
vn 0 1 0 
vn 0 1 0 
vn 0 1 0 
vn 0 1 0 
vn 0 1 0 
vn 0 1 0 
vn 0 1 0 
vn 0 1 0 
vn 0.708661 0 0.708661 
vn 1 0 0 
vn 1 0 0 
vn 0.708661 0 0.708661 
vn 0.708661 0 -0.708661 
vn 0.708661 0 -0.708661 
vn 1 0 0 
vn 1 0 0 
vn 0.708661 0 0.708661 
vn 0.708661 0 0.708661 
vn 0 0 1 
vn 0 0 1 
vn -0.708661 0 0.708661 
vn -0.708661 0 0.708661 
vn 0 -1 0 
vn 0 -1 0 
vn 0 -1 0 
vn 0 -1 0 
vn 0 -1 0 
vn 0 -1 0 
vn 0 -1 0 
vn 0 -1 0 
vn -0.708661 0 0.708661 
vn -0.708661 0 0.708661 
vn -1 0 0 
vn -1 0 0 
vn -0.708661 0 -0.708661 
vn -0.708661 0 -0.708661 

vt 10.0381 -44.9087 
vt 10.0381 -45.0913 
vt 10 -44.9087 
vt 10 -45.0913 
vt 9.96188 -44.9087 
vt 9.96188 -45.0913 
vt 9.94608 -45 
vt 10 -44.9461 
vt 9.96188 -44.9619 
vt 10 -45.0539 
vt 9.96188 -45.0381 
vt 10.0381 -44.9619 
vt 10.0381 -45.0381 
vt 10.0539 -45 
vt 9.96188 -44.9087 
vt 10 -45.0913 
vt 10 -44.9087 
vt 9.96188 -45.0913 
vt 10.0381 -44.9087 
vt 10.0381 -45.0913 
vt 10 -44.9087 
vt 10 -45.0913 
vt 10.0381 -44.9087 
vt 10.0381 -45.0913 
vt 10 -44.9087 
vt 10 -45.0913 
vt 9.96188 -44.9087 
vt 9.96188 -45.0913 
vt 9.96188 -45.0381 
vt 9.96188 -44.9619 
vt 9.94608 -45 
vt 10 -44.9461 
vt 10 -45.0539 
vt 10.0539 -45 
vt 10.0381 -44.9619 
vt 10.0381 -45.0381 
vt 10.0381 -44.9087 
vt 10.0381 -45.0913 
vt 10 -44.9087 
vt 10 -45.0913 
vt 9.96188 -44.9087 
vt 9.96188 -45.0913 

usemtl Meshesturretsv2cylinder0431Mtl

f 883/883/883 882/882/882 881/881/881 
f 882/882/882 883/883/883 884/884/884 
f 885/885/885 884/884/884 883/883/883 
f 884/884/884 885/885/885 886/886/886 
f 887/887/887 888/888/888 889/889/889 
f 888/888/888 887/887/887 890/890/890 
f 890/890/890 887/887/887 891/891/891 
f 888/888/888 890/890/890 892/892/892 
f 892/892/892 890/890/890 893/893/893 
f 892/892/892 893/893/893 894/894/894 
f 895/895/895 896/896/896 897/897/897 
f 896/896/896 895/895/895 898/898/898 
f 901/901/901 900/900/900 899/899/899 
f 900/900/900 901/901/901 902/902/902 
f 905/905/905 904/904/904 903/903/903 
f 904/904/904 905/905/905 906/906/906 
f 907/907/907 906/906/906 905/905/905 
f 906/906/906 907/907/907 908/908/908 
f 909/909/909 910/910/910 911/911/911 
f 909/909/909 912/912/912 910/910/910 
f 913/913/913 912/912/912 909/909/909 
f 913/913/913 914/914/914 912/912/912 
f 912/912/912 914/914/914 915/915/915 
f 914/914/914 913/913/913 916/916/916 
f 919/919/919 918/918/918 917/917/917 
f 918/918/918 919/919/919 920/920/920 
f 921/921/921 920/920/920 919/919/919 
f 920/920/920 921/921/921 922/922/922 

g Meshesturretsv2cylinder0441

v 53.6405 3.51817 62.6405 
v 53.6405 3.32222 62.6405 
v 54 3.51817 62.4916 
v 54 3.32222 62.4916 
v 54.3595 3.51817 62.6405 
v 54.3595 3.32222 62.6405 
v 54 3.51817 62.4916 
v 54.3595 3.51817 63.3595 
v 54.3595 3.51817 62.6405 
v 54.5084 3.51817 63 
v 53.6405 3.51817 63.3595 
v 54 3.51817 63.5084 
v 53.6405 3.51817 62.6405 
v 53.4916 3.51817 63 
v 54.3595 3.51817 63.3595 
v 54.5084 3.32222 63 
v 54.5084 3.51817 63 
v 54.3595 3.32222 63.3595 
v 54.3595 3.51817 62.6405 
v 54.3595 3.32222 62.6405 
v 54.5084 3.51817 63 
v 54.5084 3.32222 63 
v 54.3595 3.51817 63.3595 
v 54.3595 3.32222 63.3595 
v 54 3.51817 63.5084 
v 54 3.32222 63.5084 
v 53.6405 3.51817 63.3595 
v 53.6405 3.32222 63.3595 
v 53.6405 3.32222 63.3595 
v 54.3595 3.32222 63.3595 
v 54 3.32222 63.5084 
v 54.3595 3.32222 62.6405 
v 54.5084 3.32222 63 
v 54 3.32222 62.4916 
v 53.6405 3.32222 62.6405 
v 53.4916 3.32222 63 
v 53.6405 3.51817 63.3595 
v 53.6405 3.32222 63.3595 
v 53.4916 3.51817 63 
v 53.4916 3.32222 63 
v 53.6405 3.51817 62.6405 
v 53.6405 3.32222 62.6405 

vn -0.708661 0 -0.708661 
vn -0.708661 0 -0.708661 
vn 0 0 -1 
vn 0 0 -1 
vn 0.708661 0 -0.708661 
vn 0.708661 0 -0.708661 
vn 0 1 0 
vn 0 1 0 
vn 0 1 0 
vn 0 1 0 
vn 0 1 0 
vn 0 1 0 
vn 0 1 0 
vn 0 1 0 
vn 0.708661 0 0.708661 
vn 1 0 0 
vn 1 0 0 
vn 0.708661 0 0.708661 
vn 0.708661 0 -0.708661 
vn 0.708661 0 -0.708661 
vn 1 0 0 
vn 1 0 0 
vn 0.708661 0 0.708661 
vn 0.708661 0 0.708661 
vn 0 0 1 
vn 0 0 1 
vn -0.708661 0 0.708661 
vn -0.708661 0 0.708661 
vn 0 -1 0 
vn 0 -1 0 
vn 0 -1 0 
vn 0 -1 0 
vn 0 -1 0 
vn 0 -1 0 
vn 0 -1 0 
vn 0 -1 0 
vn -0.708661 0 0.708661 
vn -0.708661 0 0.708661 
vn -1 0 0 
vn -1 0 0 
vn -0.708661 0 -0.708661 
vn -0.708661 0 -0.708661 

vt 48.0449 1.01225 
vt 48.0449 0.987753 
vt 48 1.01225 
vt 48 0.987753 
vt 47.9551 1.01225 
vt 47.9551 0.987753 
vt 47.9365 1 
vt 48.0449 1.04493 
vt 47.9551 1.04493 
vt 48 1.06355 
vt 48.0449 0.955066 
vt 48.0635 1 
vt 47.9551 0.955066 
vt 48 0.936454 
vt 47.9551 1.01225 
vt 48 0.987753 
vt 48 1.01225 
vt 47.9551 0.987753 
vt 48.0449 1.01225 
vt 48.0449 0.987753 
vt 48 1.01225 
vt 48 0.987753 
vt 48.0449 1.01225 
vt 48.0449 0.987753 
vt 48 1.01225 
vt 48 0.987753 
vt 47.9551 1.01225 
vt 47.9551 0.987753 
vt 47.9551 0.955066 
vt 47.9551 1.04493 
vt 47.9365 1 
vt 48.0449 1.04493 
vt 48 1.06355 
vt 48.0635 1 
vt 48.0449 0.955066 
vt 48 0.936454 
vt 48.0449 1.01225 
vt 48.0449 0.987753 
vt 48 1.01225 
vt 48 0.987753 
vt 47.9551 1.01225 
vt 47.9551 0.987753 

usemtl Meshesturretsv2cylinder0451Mtl

f 925/925/925 924/924/924 923/923/923 
f 924/924/924 925/925/925 926/926/926 
f 927/927/927 926/926/926 925/925/925 
f 926/926/926 927/927/927 928/928/928 
f 929/929/929 930/930/930 931/931/931 
f 931/931/931 930/930/930 932/932/932 
f 929/929/929 933/933/933 930/930/930 
f 930/930/930 933/933/933 934/934/934 
f 933/933/933 929/929/929 935/935/935 
f 933/933/933 935/935/935 936/936/936 
f 937/937/937 938/938/938 939/939/939 
f 938/938/938 937/937/937 940/940/940 
f 943/943/943 942/942/942 941/941/941 
f 942/942/942 943/943/943 944/944/944 
f 947/947/947 946/946/946 945/945/945 
f 946/946/946 947/947/947 948/948/948 
f 949/949/949 948/948/948 947/947/947 
f 948/948/948 949/949/949 950/950/950 
f 951/951/951 952/952/952 953/953/953 
f 952/952/952 954/954/954 955/955/955 
f 954/954/954 952/952/952 956/956/956 
f 951/951/951 956/956/956 952/952/952 
f 956/956/956 951/951/951 957/957/957 
f 957/957/957 951/951/951 958/958/958 
f 961/961/961 960/960/960 959/959/959 
f 960/960/960 961/961/961 962/962/962 
f 963/963/963 962/962/962 961/961/961 
f 962/962/962 963/963/963 964/964/964 

